<svg xmlns="http://www.w3.org/2000/svg" width="667.436279296875" height="653.3676147460938" viewBox="-244.6134490966797 -251.74244689941406 667.436279296875 653.3676147460938"><title>Neo4j Graph Visualization</title><desc>Created using Neo4j (http://www.neo4j.com/)</desc><g class="layer relationships"><g class="relationship" transform="translate(211.27310913127027 102.41198999330388) rotate(190.04288775984264)"><path class="outline" fill="#A5ABB6" stroke="none" d="M 25 0.5 L 55.10750089108842 0.5 L 55.10750089108842 -0.5 L 25 -0.5 Z M 89.89083371579545 0.5 L 119.99833460688387 0.5 L 119.99833460688387 3.5 L 126.99833460688387 0 L 119.99833460688387 -3.5 L 119.99833460688387 -0.5 L 89.89083371579545 -0.5 Z"/><text text-anchor="middle" pointer-events="none" font-size="8px" fill="#000000" x="72.49916730344194" y="3" transform="rotate(180 72.49916730344194 0)" font-family="sans-serif">ORIGIN</text></g><g class="relationship" transform="translate(211.27310913127027 102.41198999330388) rotate(385.748868591256)"><path class="outline" fill="#A5ABB6" stroke="none" d="M 25 0.5 L 45.36422989000421 0.5 L 45.36422989000421 -0.5 L 25 -0.5 Z M 105.28089782823663 0.5 L 125.64512771824084 0.5 L 125.64512771824084 3.5 L 132.64512771824084 0 L 125.64512771824084 -3.5 L 125.64512771824084 -0.5 L 105.28089782823663 -0.5 Z"/><text text-anchor="middle" pointer-events="none" font-size="8px" fill="#000000" x="75.32256385912042" y="3" font-family="sans-serif">DESTINATION</text></g><g class="relationship" transform="translate(131.73351524043917 239.5061934794792) rotate(246.79689596573076)"><path class="outline" fill="#A5ABB6" stroke="none" d="M 25 0.5 L 68.10734667731772 0.5 L 68.10734667731772 -0.5 L 25 -0.5 Z M 102.89067950202475 0.5 L 145.99802617934247 0.5 L 145.99802617934247 3.5 L 152.99802617934247 0 L 145.99802617934247 -3.5 L 145.99802617934247 -0.5 L 102.89067950202475 -0.5 Z"/><text text-anchor="middle" pointer-events="none" font-size="8px" fill="#000000" x="85.49901308967124" y="3" transform="rotate(180 85.49901308967124 0)" font-family="sans-serif">ORIGIN</text></g><g class="relationship" transform="translate(131.73351524043917 239.5061934794792) rotate(465.4210078930154)"><path class="outline" fill="#A5ABB6" stroke="none" d="M 25 0.5 L 35.58693614414696 0.5 L 35.58693614414696 -0.5 L 25 -0.5 Z M 95.50360408237938 0.5 L 106.09054022652634 0.5 L 106.09054022652634 3.5 L 113.09054022652634 0 L 106.09054022652634 -3.5 L 106.09054022652634 -0.5 L 95.50360408237938 -0.5 Z"/><text text-anchor="middle" pointer-events="none" font-size="8px" fill="#000000" x="65.54527011326317" y="3" transform="rotate(180 65.54527011326317 0)" font-family="sans-serif">DESTINATION</text></g><g class="relationship" transform="translate(224.08525474623787 160.8850596907276) rotate(207.6099898818362)"><path class="outline" fill="#A5ABB6" stroke="none" d="M 25 0.5 L 70.78946822025979 0.5 L 70.78946822025979 -0.5 L 25 -0.5 Z M 105.57280104496682 0.5 L 151.36226926522662 0.5 L 151.36226926522662 3.5 L 158.36226926522662 0 L 151.36226926522662 -3.5 L 151.36226926522662 -0.5 L 105.57280104496682 -0.5 Z"/><text text-anchor="middle" pointer-events="none" font-size="8px" fill="#000000" x="88.18113463261331" y="3" transform="rotate(180 88.18113463261331 0)" font-family="sans-serif">ORIGIN</text></g><g class="relationship" transform="translate(224.08525474623787 160.8850596907276) rotate(364.4319450231746)"><path class="outline" fill="#A5ABB6" stroke="none" d="M 25 0.5 L 31.325328532906227 0.5 L 31.325328532906227 -0.5 L 25 -0.5 Z M 91.24199647113865 0.5 L 97.56732500404487 0.5 L 97.56732500404487 3.5 L 104.56732500404487 0 L 97.56732500404487 -3.5 L 97.56732500404487 -0.5 L 91.24199647113865 -0.5 Z"/><text text-anchor="middle" pointer-events="none" font-size="8px" fill="#000000" x="61.28366250202244" y="3" font-family="sans-serif">DESTINATION</text></g><g class="relationship" transform="translate(-59.29168225627715 -30.40252412207775) rotate(401.3264677343809)"><path class="outline" fill="#A5ABB6" stroke="none" d="M 25 0.5 L 59.602358659983565 0.5 L 59.602358659983565 -0.5 L 25 -0.5 Z M 94.3856914846906 0.5 L 128.98805014467416 0.5 L 128.98805014467416 3.5 L 135.98805014467416 0 L 128.98805014467416 -3.5 L 128.98805014467416 -0.5 L 94.3856914846906 -0.5 Z"/><text text-anchor="middle" pointer-events="none" font-size="8px" fill="#000000" x="76.99402507233708" y="3" font-family="sans-serif">ORIGIN</text></g><g class="relationship" transform="translate(-59.29168225627715 -30.40252412207775) rotate(516.8749363240581)"><path class="outline" fill="#A5ABB6" stroke="none" d="M 25 0.5 L 51.531500266841945 0.5 L 51.531500266841945 -0.5 L 25 -0.5 Z M 111.44816820507437 0.5 L 137.9796684719163 0.5 L 137.9796684719163 3.5 L 144.9796684719163 0 L 137.9796684719163 -3.5 L 137.9796684719163 -0.5 L 111.44816820507437 -0.5 Z"/><text text-anchor="middle" pointer-events="none" font-size="8px" fill="#000000" x="81.48983423595816" y="3" transform="rotate(180 81.48983423595816 0)" font-family="sans-serif">DESTINATION</text></g><g class="relationship" transform="translate(191.69179135169432 -66.1680788081473) rotate(492.47837225243285)"><path class="outline" fill="#A5ABB6" stroke="none" d="M 25 0.5 L 75.42533192089712 0.5 L 75.42533192089712 -0.5 L 25 -0.5 Z M 110.20866474560415 0.5 L 160.63399666650128 0.5 L 160.63399666650128 3.5 L 167.63399666650128 0 L 160.63399666650128 -3.5 L 160.63399666650128 -0.5 L 110.20866474560415 -0.5 Z"/><text text-anchor="middle" pointer-events="none" font-size="8px" fill="#000000" x="92.81699833325064" y="3" transform="rotate(180 92.81699833325064 0)" font-family="sans-serif">ORIGIN</text></g><g class="relationship" transform="translate(191.69179135169432 -66.1680788081473) rotate(310.3483231161117)"><path class="outline" fill="#A5ABB6" stroke="none" d="M 25 0.5 L 26.266085370741287 0.5 L 26.266085370741287 -0.5 L 25 -0.5 Z M 69.79941819544831 0.5 L 71.0655035661896 0.5 L 71.0655035661896 3.5 L 78.0655035661896 0 L 71.0655035661896 -3.5 L 71.0655035661896 -0.5 L 69.79941819544831 -0.5 Z"/><text text-anchor="middle" pointer-events="none" font-size="8px" fill="#000000" x="48.0327517830948" y="3" font-family="sans-serif">DESTIN…</text></g><g class="relationship" transform="translate(135.57333423119195 -87.33380250143787) rotate(474.37695130894514)"><path class="outline" fill="#A5ABB6" stroke="none" d="M 25 0.5 L 68.71669956245675 0.5 L 68.71669956245675 -0.5 L 25 -0.5 Z M 103.50003238716378 0.5 L 147.21673194962054 0.5 L 147.21673194962054 3.5 L 154.21673194962054 0 L 147.21673194962054 -3.5 L 147.21673194962054 -0.5 L 103.50003238716378 -0.5 Z"/><text text-anchor="middle" pointer-events="none" font-size="8px" fill="#000000" x="86.10836597481027" y="3" transform="rotate(180 86.10836597481027 0)" font-family="sans-serif">ORIGIN</text></g><g class="relationship" transform="translate(135.57333423119195 -87.33380250143787) rotate(334.9622439763476)"><path class="outline" fill="#A5ABB6" stroke="none" d="M 25 0.5 L 34.335538753297385 0.5 L 34.335538753297385 -0.5 L 25 -0.5 Z M 94.2522066915298 0.5 L 103.58774544482719 0.5 L 103.58774544482719 3.5 L 110.58774544482719 0 L 103.58774544482719 -3.5 L 103.58774544482719 -0.5 L 94.2522066915298 -0.5 Z"/><text text-anchor="middle" pointer-events="none" font-size="8px" fill="#000000" x="64.2938727224136" y="3" font-family="sans-serif">DESTINATION</text></g><g class="relationship" transform="translate(79.70289592128694 209.7360464513753) rotate(262.29808461270534)"><path class="outline" fill="#A5ABB6" stroke="none" d="M 25 0.5 L 46.63265442524859 0.5 L 46.63265442524859 -0.5 L 25 -0.5 Z M 81.41598724995562 0.5 L 103.04864167520421 0.5 L 103.04864167520421 3.5 L 110.04864167520421 0 L 103.04864167520421 -3.5 L 103.04864167520421 -0.5 L 81.41598724995562 -0.5 Z"/><text text-anchor="middle" pointer-events="none" font-size="8px" fill="#000000" x="64.0243208376021" y="3" transform="rotate(180 64.0243208376021 0)" font-family="sans-serif">ORIGIN</text></g><g class="relationship" transform="translate(79.70289592128694 209.7360464513753) rotate(444.6301713072919)"><path class="outline" fill="#A5ABB6" stroke="none" d="M 25 0.5 L 48.34524445216363 0.5 L 48.34524445216363 -0.5 L 25 -0.5 Z M 108.26191239039605 0.5 L 131.60715684255968 0.5 L 131.60715684255968 3.5 L 138.60715684255968 0 L 131.60715684255968 -3.5 L 131.60715684255968 -0.5 L 108.26191239039605 -0.5 Z"/><text text-anchor="middle" pointer-events="none" font-size="8px" fill="#000000" x="78.30357842127984" y="3" font-family="sans-serif">DESTINATION</text></g><g class="relationship" transform="translate(-117.53703946264119 46.70197928807185) rotate(369.2589742120564)"><path class="outline" fill="#A5ABB6" stroke="none" d="M 25 0.5 L 69.86114035923673 0.5 L 69.86114035923673 -0.5 L 25 -0.5 Z M 104.64447318394376 0.5 L 149.5056135431805 0.5 L 149.5056135431805 3.5 L 156.5056135431805 0 L 149.5056135431805 -3.5 L 149.5056135431805 -0.5 L 104.64447318394376 -0.5 Z"/><text text-anchor="middle" pointer-events="none" font-size="8px" fill="#000000" x="87.25280677159024" y="3" font-family="sans-serif">ORIGIN</text></g><g class="relationship" transform="translate(-117.53703946264119 46.70197928807185) rotate(186.02226576225667)"><path class="outline" fill="#A5ABB6" stroke="none" d="M 25 0.5 L 27.035338393985683 0.5 L 27.035338393985683 -0.5 L 25 -0.5 Z M 64.58533763104623 0.5 L 66.62067602503191 0.5 L 66.62067602503191 3.5 L 73.62067602503191 0 L 66.62067602503191 -3.5 L 66.62067602503191 -0.5 L 64.58533763104623 -0.5 Z"/><text text-anchor="middle" pointer-events="none" font-size="8px" fill="#000000" x="45.810338012515956" y="3" transform="rotate(180 45.810338012515956 0)" font-family="sans-serif">DESTI…</text></g><g class="relationship" transform="translate(-60.23447811039044 29.499477152238786) rotate(380.8510365826223)"><path class="outline" fill="#A5ABB6" stroke="none" d="M 25 0.5 L 44.29670995831893 0.5 L 44.29670995831893 -0.5 L 25 -0.5 Z M 79.08004278302596 0.5 L 98.37675274134489 0.5 L 98.37675274134489 3.5 L 105.37675274134489 0 L 98.37675274134489 -3.5 L 98.37675274134489 -0.5 L 79.08004278302596 -0.5 Z"/><text text-anchor="middle" pointer-events="none" font-size="8px" fill="#000000" x="61.688376370672444" y="3" font-family="sans-serif">ORIGIN</text></g><g class="relationship" transform="translate(-60.23447811039044 29.499477152238786) rotate(537.4736013418221)"><path class="outline" fill="#A5ABB6" stroke="none" d="M 25 0.5 L 44.306737029720026 0.5 L 44.306737029720026 -0.5 L 25 -0.5 Z M 104.22340496795245 0.5 L 123.53014199767247 0.5 L 123.53014199767247 3.5 L 130.53014199767247 0 L 123.53014199767247 -3.5 L 123.53014199767247 -0.5 L 104.22340496795245 -0.5 Z"/><text text-anchor="middle" pointer-events="none" font-size="8px" fill="#000000" x="74.26507099883624" y="3" transform="rotate(180 74.26507099883624 0)" font-family="sans-serif">DESTINATION</text></g><g class="relationship" transform="translate(-116.55278155774182 -13.243476368772027) rotate(386.5832940376928)"><path class="outline" fill="#A5ABB6" stroke="none" d="M 25 0.5 L 78.7167359746158 0.5 L 78.7167359746158 -0.5 L 25 -0.5 Z M 113.50006879932283 0.5 L 167.21680477393863 0.5 L 167.21680477393863 3.5 L 174.21680477393863 0 L 167.21680477393863 -3.5 L 167.21680477393863 -0.5 L 113.50006879932283 -0.5 Z"/><text text-anchor="middle" pointer-events="none" font-size="8px" fill="#000000" x="96.10840238696932" y="3" font-family="sans-serif">ORIGIN</text></g><g class="relationship" transform="translate(-116.55278155774182 -13.243476368772027) rotate(513.4033355049681)"><path class="outline" fill="#A5ABB6" stroke="none" d="M 25 0.5 L 25.25855245452518 0.5 L 25.25855245452518 -0.5 L 25 -0.5 Z M 78.5252188668787 0.5 L 78.78377132140388 0.5 L 78.78377132140388 3.5 L 85.78377132140388 0 L 78.78377132140388 -3.5 L 78.78377132140388 -0.5 L 78.5252188668787 -0.5 Z"/><text text-anchor="middle" pointer-events="none" font-size="8px" fill="#000000" x="51.89188566070194" y="3" transform="rotate(180 51.89188566070194 0)" font-family="sans-serif">DESTINAT…</text></g><g class="relationship" transform="translate(172.46212112331023 191.4340988053157) rotate(226.18176146734191)"><path class="outline" fill="#A5ABB6" stroke="none" d="M 25 0.5 L 59.165159089768935 0.5 L 59.165159089768935 -0.5 L 25 -0.5 Z M 93.94849191447597 0.5 L 128.1136510042449 0.5 L 128.1136510042449 3.5 L 135.1136510042449 0 L 128.1136510042449 -3.5 L 128.1136510042449 -0.5 L 93.94849191447597 -0.5 Z"/><text text-anchor="middle" pointer-events="none" font-size="8px" fill="#000000" x="76.55682550212245" y="3" transform="rotate(180 76.55682550212245 0)" font-family="sans-serif">ORIGIN</text></g><g class="relationship" transform="translate(172.46212112331023 191.4340988053157) rotate(407.62972942817754)"><path class="outline" fill="#A5ABB6" stroke="none" d="M 25 0.5 L 48.963662395665395 0.5 L 48.963662395665395 -0.5 L 25 -0.5 Z M 108.88033033389782 0.5 L 132.8439927295632 0.5 L 132.8439927295632 3.5 L 139.8439927295632 0 L 132.8439927295632 -3.5 L 132.8439927295632 -0.5 L 108.88033033389782 -0.5 Z"/><text text-anchor="middle" pointer-events="none" font-size="8px" fill="#000000" x="78.9219963647816" y="3" font-family="sans-serif">DESTINATION</text></g><g class="relationship" transform="translate(145.42489978940264 -28.222258433665985) rotate(488.8334340531576)"><path class="outline" fill="#A5ABB6" stroke="none" d="M 25 0.5 L 45.94510677086524 0.5 L 45.94510677086524 -0.5 L 25 -0.5 Z M 80.72843959557227 0.5 L 101.6735463664375 0.5 L 101.6735463664375 3.5 L 108.6735463664375 0 L 101.6735463664375 -3.5 L 101.6735463664375 -0.5 L 80.72843959557227 -0.5 Z"/><text text-anchor="middle" pointer-events="none" font-size="8px" fill="#000000" x="63.33677318321875" y="3" transform="rotate(180 63.33677318321875 0)" font-family="sans-serif">ORIGIN</text></g><g class="relationship" transform="translate(145.42489978940264 -28.222258433665985) rotate(314.1263626641899)"><path class="outline" fill="#A5ABB6" stroke="none" d="M 25 0.5 L 47.687798861076885 0.5 L 47.687798861076885 -0.5 L 25 -0.5 Z M 107.60446679930931 0.5 L 130.2922656603862 0.5 L 130.2922656603862 3.5 L 137.2922656603862 0 L 130.2922656603862 -3.5 L 130.2922656603862 -0.5 L 107.60446679930931 -0.5 Z"/><text text-anchor="middle" pointer-events="none" font-size="8px" fill="#000000" x="77.6461328301931" y="3" font-family="sans-serif">DESTINATION</text></g><g class="relationship" transform="translate(-37.52461376092067 212.30092901935672) rotate(306.00864890308884)"><path class="outline" fill="#A5ABB6" stroke="none" d="M 25 0.5 L 63.41445795994545 0.5 L 63.41445795994545 -0.5 L 25 -0.5 Z M 98.19779078465248 0.5 L 136.61224874459793 0.5 L 136.61224874459793 3.5 L 143.61224874459793 0 L 136.61224874459793 -3.5 L 136.61224874459793 -0.5 L 98.19779078465248 -0.5 Z"/><text text-anchor="middle" pointer-events="none" font-size="8px" fill="#000000" x="80.80612437229897" y="3" font-family="sans-serif">ORIGIN</text></g><g class="relationship" transform="translate(-37.52461376092067 212.30092901935672) rotate(485.1924206622146)"><path class="outline" fill="#A5ABB6" stroke="none" d="M 25 0.5 L 44.725216021674214 0.5 L 44.725216021674214 -0.5 L 25 -0.5 Z M 104.64188395990664 0.5 L 124.36709998158085 0.5 L 124.36709998158085 3.5 L 131.36709998158085 0 L 124.36709998158085 -3.5 L 124.36709998158085 -0.5 L 104.64188395990664 -0.5 Z"/><text text-anchor="middle" pointer-events="none" font-size="8px" fill="#000000" x="74.68354999079042" y="3" transform="rotate(180 74.68354999079042 0)" font-family="sans-serif">DESTINATION</text></g><g class="relationship" transform="translate(236.97900305286547 48.18424923166929) rotate(531.0176066685484)"><path class="outline" fill="#A5ABB6" stroke="none" d="M 25 0.5 L 67.88467085467406 0.5 L 67.88467085467406 -0.5 L 25 -0.5 Z M 102.66800367938109 0.5 L 145.55267453405514 0.5 L 145.55267453405514 3.5 L 152.55267453405514 0 L 145.55267453405514 -3.5 L 145.55267453405514 -0.5 L 102.66800367938109 -0.5 Z"/><text text-anchor="middle" pointer-events="none" font-size="8px" fill="#000000" x="85.27633726702757" y="3" transform="rotate(180 85.27633726702757 0)" font-family="sans-serif">ORIGIN</text></g><g class="relationship" transform="translate(236.97900305286547 48.18424923166929) rotate(350.7894197540626)"><path class="outline" fill="#A5ABB6" stroke="none" d="M 25 0.5 L 45.9879112113595 0.5 L 45.9879112113595 -0.5 L 25 -0.5 Z M 105.90457914959192 0.5 L 126.89249036095143 0.5 L 126.89249036095143 3.5 L 133.89249036095143 0 L 126.89249036095143 -3.5 L 126.89249036095143 -0.5 L 105.90457914959192 -0.5 Z"/><text text-anchor="middle" pointer-events="none" font-size="8px" fill="#000000" x="75.94624518047571" y="3" font-family="sans-serif">DESTINATION</text></g><g class="relationship" transform="translate(-131.50169069279053 105.04634205875992) rotate(351.4185160690588)"><path class="outline" fill="#A5ABB6" stroke="none" d="M 25 0.5 L 76.75424348240568 0.5 L 76.75424348240568 -0.5 L 25 -0.5 Z M 111.53757630711272 0.5 L 163.2918197895184 0.5 L 163.2918197895184 3.5 L 170.2918197895184 0 L 163.2918197895184 -3.5 L 163.2918197895184 -0.5 L 111.53757630711272 -0.5 Z"/><text text-anchor="middle" pointer-events="none" font-size="8px" fill="#000000" x="94.1459098947592" y="3" font-family="sans-serif">ORIGIN</text></g><g class="relationship" transform="translate(-131.50169069279053 105.04634205875992) rotate(219.23731670583004)"><path class="outline" fill="#A5ABB6" stroke="none" d="M 25 0.5 L 26.29839093681941 0.5 L 26.29839093681941 -0.5 L 25 -0.5 Z M 75.2983909368194 0.5 L 76.59678187363882 0.5 L 76.59678187363882 3.5 L 83.59678187363882 0 L 76.59678187363882 -3.5 L 76.59678187363882 -0.5 L 75.2983909368194 -0.5 Z"/><text text-anchor="middle" pointer-events="none" font-size="8px" fill="#000000" x="50.79839093681941" y="3" transform="rotate(180 50.79839093681941 0)" font-family="sans-serif">DESTINA…</text></g><g class="relationship" transform="translate(2.303868043433209 -84.26545155826616) rotate(429.6840208740388)"><path class="outline" fill="#A5ABB6" stroke="none" d="M 25 0.5 L 64.50634493653983 0.5 L 64.50634493653983 -0.5 L 25 -0.5 Z M 99.28967776124686 0.5 L 138.7960226977867 0.5 L 138.7960226977867 3.5 L 145.7960226977867 0 L 138.7960226977867 -3.5 L 138.7960226977867 -0.5 L 99.28967776124686 -0.5 Z"/><text text-anchor="middle" pointer-events="none" font-size="8px" fill="#000000" x="81.89801134889335" y="3" font-family="sans-serif">ORIGIN</text></g><g class="relationship" transform="translate(2.303868043433209 -84.26545155826616) rotate(272.9458486186564)"><path class="outline" fill="#A5ABB6" stroke="none" d="M 25 0.5 L 35.87177724581974 0.5 L 35.87177724581974 -0.5 L 25 -0.5 Z M 95.78844518405216 0.5 L 106.66022242987191 0.5 L 106.66022242987191 3.5 L 113.66022242987191 0 L 106.66022242987191 -3.5 L 106.66022242987191 -0.5 L 95.78844518405216 -0.5 Z"/><text text-anchor="middle" pointer-events="none" font-size="8px" fill="#000000" x="65.83011121493595" y="3" font-family="sans-serif">DESTINATION</text></g><g class="relationship" transform="translate(25.152729165437542 245.28583139644888) rotate(282.1449747421099)"><path class="outline" fill="#A5ABB6" stroke="none" d="M 25 0.5 L 65.73728618733958 0.5 L 65.73728618733958 -0.5 L 25 -0.5 Z M 100.52061901204661 0.5 L 141.2579051993862 0.5 L 141.2579051993862 3.5 L 148.2579051993862 0 L 141.2579051993862 -3.5 L 141.2579051993862 -0.5 L 100.52061901204661 -0.5 Z"/><text text-anchor="middle" pointer-events="none" font-size="8px" fill="#000000" x="83.1289525996931" y="3" font-family="sans-serif">ORIGIN</text></g><g class="relationship" transform="translate(25.152729165437542 245.28583139644888) rotate(421.24985467089743)"><path class="outline" fill="#A5ABB6" stroke="none" d="M 25 0.5 L 39.16380235159738 0.5 L 39.16380235159738 -0.5 L 25 -0.5 Z M 99.0804702898298 0.5 L 113.24427264142719 0.5 L 113.24427264142719 3.5 L 120.24427264142719 0 L 113.24427264142719 -3.5 L 113.24427264142719 -0.5 L 99.0804702898298 -0.5 Z"/><text text-anchor="middle" pointer-events="none" font-size="8px" fill="#000000" x="69.1221363207136" y="3" font-family="sans-serif">DESTINATION</text></g><g class="relationship" transform="translate(206.16819112572426 -8.060297909194366) rotate(509.8510916026336)"><path class="outline" fill="#A5ABB6" stroke="none" d="M 25 0.5 L 62.69835020802418 0.5 L 62.69835020802418 -0.5 L 25 -0.5 Z M 97.48168303273121 0.5 L 135.1800332407554 0.5 L 135.1800332407554 3.5 L 142.1800332407554 0 L 135.1800332407554 -3.5 L 135.1800332407554 -0.5 L 97.48168303273121 -0.5 Z"/><text text-anchor="middle" pointer-events="none" font-size="8px" fill="#000000" x="80.0900166203777" y="3" transform="rotate(180 80.0900166203777 0)" font-family="sans-serif">ORIGIN</text></g><g class="relationship" transform="translate(206.16819112572426 -8.060297909194366) rotate(290.9247350159136)"><path class="outline" fill="#A5ABB6" stroke="none" d="M 25 0.5 L 39.694211593936444 0.5 L 39.694211593936444 -0.5 L 25 -0.5 Z M 99.61087953216887 0.5 L 114.30509112610531 0.5 L 114.30509112610531 3.5 L 121.30509112610531 0 L 114.30509112610531 -3.5 L 114.30509112610531 -0.5 L 99.61087953216887 -0.5 Z"/><text text-anchor="middle" pointer-events="none" font-size="8px" fill="#000000" x="69.65254556305266" y="3" font-family="sans-serif">DESTINATION</text></g><g class="relationship" transform="translate(61.697082869606845 -92.18557764332182) rotate(450.0318068432924)"><path class="outline" fill="#A5ABB6" stroke="none" d="M 25 0.5 L 63.15399355094512 0.5 L 63.15399355094512 -0.5 L 25 -0.5 Z M 97.93732637565215 0.5 L 136.09131992659727 0.5 L 136.09131992659727 3.5 L 143.09131992659727 0 L 136.09131992659727 -3.5 L 136.09131992659727 -0.5 L 97.93732637565215 -0.5 Z"/><text text-anchor="middle" pointer-events="none" font-size="8px" fill="#000000" x="80.54565996329863" y="3" transform="rotate(180 80.54565996329863 0)" font-family="sans-serif">ORIGIN</text></g><g class="relationship" transform="translate(61.697082869606845 -92.18557764332182) rotate(248.1817842696516)"><path class="outline" fill="#A5ABB6" stroke="none" d="M 25 0.5 L 36.85694213613803 0.5 L 36.85694213613803 -0.5 L 25 -0.5 Z M 96.77361007437045 0.5 L 108.63055221050848 0.5 L 108.63055221050848 3.5 L 115.63055221050848 0 L 108.63055221050848 -3.5 L 108.63055221050848 -0.5 L 96.77361007437045 -0.5 Z"/><text text-anchor="middle" pointer-events="none" font-size="8px" fill="#000000" x="66.81527610525424" y="3" transform="rotate(180 66.81527610525424 0)" font-family="sans-serif">DESTINATION</text></g><g class="relationship" transform="translate(79.88783292216056 269.5743267100006) rotate(264.6067472909107)"><path class="outline" fill="#A5ABB6" stroke="none" d="M 25 0.5 L 76.3732265296864 0.5 L 76.3732265296864 -0.5 L 25 -0.5 Z M 111.15655935439344 0.5 L 162.52978588407984 0.5 L 162.52978588407984 3.5 L 169.52978588407984 0 L 162.52978588407984 -3.5 L 162.52978588407984 -0.5 L 111.15655935439344 -0.5 Z"/><text text-anchor="middle" pointer-events="none" font-size="8px" fill="#000000" x="93.76489294203992" y="3" transform="rotate(180 93.76489294203992 0)" font-family="sans-serif">ORIGIN</text></g><g class="relationship" transform="translate(79.88783292216056 269.5743267100006) rotate(441.6496010822153)"><path class="outline" fill="#A5ABB6" stroke="none" d="M 25 0.5 L 26.810871134041108 0.5 L 26.810871134041108 -0.5 L 25 -0.5 Z M 70.34420395874814 0.5 L 72.15507509278925 0.5 L 72.15507509278925 3.5 L 79.15507509278925 0 L 72.15507509278925 -3.5 L 72.15507509278925 -0.5 L 70.34420395874814 -0.5 Z"/><text text-anchor="middle" pointer-events="none" font-size="8px" fill="#000000" x="48.57753754639462" y="3" font-family="sans-serif">DESTIN…</text></g><g class="relationship" transform="translate(-74.05110466955647 87.83996591020367) rotate(354.97234279595637)"><path class="outline" fill="#A5ABB6" stroke="none" d="M 25 0.5 L 47.197743991959356 0.5 L 47.197743991959356 -0.5 L 25 -0.5 Z M 81.98107681666639 0.5 L 104.17882080862574 0.5 L 104.17882080862574 3.5 L 111.17882080862574 0 L 104.17882080862574 -3.5 L 104.17882080862574 -0.5 L 81.98107681666639 -0.5 Z"/><text text-anchor="middle" pointer-events="none" font-size="8px" fill="#000000" x="64.58941040431287" y="3" font-family="sans-serif">ORIGIN</text></g><g class="relationship" transform="translate(-74.05110466955647 87.83996591020367) rotate(199.9858064635157)"><path class="outline" fill="#A5ABB6" stroke="none" d="M 25 0.5 L 41.85862685687749 0.5 L 41.85862685687749 -0.5 L 25 -0.5 Z M 101.77529479510991 0.5 L 118.63392165198741 0.5 L 118.63392165198741 3.5 L 125.63392165198741 0 L 118.63392165198741 -3.5 L 118.63392165198741 -0.5 L 101.77529479510991 -0.5 Z"/><text text-anchor="middle" pointer-events="none" font-size="8px" fill="#000000" x="71.8169608259937" y="3" transform="rotate(180 71.8169608259937 0)" font-family="sans-serif">DESTINATION</text></g><g class="relationship" transform="translate(-88.02146836732373 146.10829723780807) rotate(334.86452646568273)"><path class="outline" fill="#A5ABB6" stroke="none" d="M 25 0.5 L 61.746270106979225 0.5 L 61.746270106979225 -0.5 L 25 -0.5 Z M 96.52960293168626 0.5 L 133.27587303866548 0.5 L 133.27587303866548 3.5 L 140.27587303866548 0 L 133.27587303866548 -3.5 L 133.27587303866548 -0.5 L 96.52960293168626 -0.5 Z"/><text text-anchor="middle" pointer-events="none" font-size="8px" fill="#000000" x="79.13793651933274" y="3" font-family="sans-serif">ORIGIN</text></g><g class="relationship" transform="translate(-88.02146836732373 146.10829723780807) rotate(220.70172518434146)"><path class="outline" fill="#A5ABB6" stroke="none" d="M 25 0.5 L 50.69250698618747 0.5 L 50.69250698618747 -0.5 L 25 -0.5 Z M 110.60917492441989 0.5 L 136.30168191060736 0.5 L 136.30168191060736 3.5 L 143.30168191060736 0 L 136.30168191060736 -3.5 L 136.30168191060736 -0.5 L 110.60917492441989 -0.5 Z"/><text text-anchor="middle" pointer-events="none" font-size="8px" fill="#000000" x="80.65084095530368" y="3" transform="rotate(180 80.65084095530368 0)" font-family="sans-serif">DESTINATION</text></g></g><g class="layer nodes"><g class="node" transform="translate(61.60376964405088,75.90571638259617)"><circle class="outline" cx="0" cy="0" r="25" fill="#ECB5C9" stroke="#da7298" stroke-width="2px"/><text text-anchor="middle" pointer-events="none" font-family="sans-serif" dy="1.5625" font-size="25" fill="#2A2C34"/><text text-anchor="middle" pointer-events="none" x="0" y="5" font-size="10px" fill="#2A2C34" font-family="sans-serif"> LAX</text></g><g class="node" transform="translate(353.2651505000777,170.8973642072143)"><circle class="outline" cx="0" cy="0" r="25" fill="#ECB5C9" stroke="#da7298" stroke-width="2px"/><text text-anchor="middle" pointer-events="none" font-family="sans-serif" dy="1.5625" font-size="25" fill="#2A2C34"/><text text-anchor="middle" pointer-events="none" x="0" y="5" font-size="10px" fill="#2A2C34" font-family="sans-serif"> EWR</text></g><g class="node" transform="translate(95.01391604869809,372.62519413397547)"><circle class="outline" cx="0" cy="0" r="25" fill="#ECB5C9" stroke="#da7298" stroke-width="2px"/><text text-anchor="middle" pointer-events="none" font-family="sans-serif" dy="1.5625" font-size="25" fill="#2A2C34"/><text text-anchor="middle" pointer-events="none" x="0" y="5" font-size="10px" fill="#2A2C34" font-family="sans-serif"> SMF</text></g><g class="node" transform="translate(-215.61344763943924,36.355197238931936)"><circle class="outline" cx="0" cy="0" r="25" fill="#ECB5C9" stroke="#da7298" stroke-width="2px"/><text text-anchor="middle" pointer-events="none" font-family="sans-serif" dy="1.5625" font-size="25" fill="#2A2C34"/><text text-anchor="middle" pointer-events="none" x="0" y="5" font-size="10px" fill="#2A2C34" font-family="sans-serif"> ABQ</text></g><g class="node" transform="translate(258.41977704814246,-144.7166239903902)"><circle class="outline" cx="0" cy="0" r="25" fill="#ECB5C9" stroke="#da7298" stroke-width="2px"/><text text-anchor="middle" pointer-events="none" font-family="sans-serif" dy="1.5625" font-size="25" fill="#2A2C34"/><text text-anchor="middle" pointer-events="none" x="0" y="5" font-size="10px" fill="#2A2C34" font-family="sans-serif"> FAT</text></g><g class="node" transform="translate(283.55364125230807,313.2216847673207)"><circle class="outline" cx="0" cy="0" r="25" fill="#ECB5C9" stroke="#da7298" stroke-width="2px"/><text text-anchor="middle" pointer-events="none" font-family="sans-serif" dy="1.5625" font-size="25" fill="#2A2C34"/><text text-anchor="middle" pointer-events="none" x="0" y="5" font-size="10px" fill="#2A2C34" font-family="sans-serif"> IAH</text></g><g class="node" transform="translate(-127.64276000414097,340.08742937966576)"><circle class="outline" cx="0" cy="0" r="25" fill="#ECB5C9" stroke="#da7298" stroke-width="2px"/><text text-anchor="middle" pointer-events="none" font-family="sans-serif" dy="1.5625" font-size="25" fill="#2A2C34"/><text text-anchor="middle" pointer-events="none" x="0" y="5" font-size="10px" fill="#2A2C34" font-family="sans-serif"> BOS</text></g><g class="node" transform="translate(393.82284877061556,22.751365919475948)"><circle class="outline" cx="0" cy="0" r="25" fill="#ECB5C9" stroke="#da7298" stroke-width="2px"/><text text-anchor="middle" pointer-events="none" font-family="sans-serif" dy="1.5625" font-size="25" fill="#2A2C34"/><text text-anchor="middle" pointer-events="none" x="0" y="5" font-size="10px" fill="#2A2C34" font-family="sans-serif"> LAS</text></g><g class="node" transform="translate(9.429909220310794,-222.74244178208275)"><circle class="outline" cx="0" cy="0" r="25" fill="#ECB5C9" stroke="#da7298" stroke-width="2px"/><text text-anchor="middle" pointer-events="none" font-family="sans-serif" dy="1.5625" font-size="25" fill="#2A2C34"/><text text-anchor="middle" pointer-events="none" x="0" y="5" font-size="10px" fill="#2A2C34" font-family="sans-serif"> TUS</text></g><g class="node" transform="translate(211.27310913127027,102.41198999330388)"><circle class="outline" cx="0" cy="0" r="25" fill="#4C8EDA" stroke="#2870c2" stroke-width="2px"/><text text-anchor="middle" pointer-events="none" font-family="sans-serif" dy="1.5625" font-size="25" fill="#FFFFFF"/><text text-anchor="middle" pointer-events="none" x="0" y="5" font-size="10px" fill="#FFFFFF" font-family="sans-serif"> 11/29/2…</text></g><g class="node" transform="translate(131.73351524043917,239.5061934794792)"><circle class="outline" cx="0" cy="0" r="25" fill="#4C8EDA" stroke="#2870c2" stroke-width="2px"/><text text-anchor="middle" pointer-events="none" font-family="sans-serif" dy="1.5625" font-size="25" fill="#FFFFFF"/><text text-anchor="middle" pointer-events="none" x="0" y="5" font-size="10px" fill="#FFFFFF" font-family="sans-serif"> 11/1/20…</text></g><g class="node" transform="translate(224.08525474623787,160.8850596907276)"><circle class="outline" cx="0" cy="0" r="25" fill="#4C8EDA" stroke="#2870c2" stroke-width="2px"/><text text-anchor="middle" pointer-events="none" font-family="sans-serif" dy="1.5625" font-size="25" fill="#FFFFFF"/><text text-anchor="middle" pointer-events="none" x="0" y="5" font-size="10px" fill="#FFFFFF" font-family="sans-serif"> 11/30/2…</text></g><g class="node" transform="translate(-59.29168225627715,-30.40252412207775)"><circle class="outline" cx="0" cy="0" r="25" fill="#4C8EDA" stroke="#2870c2" stroke-width="2px"/><text text-anchor="middle" pointer-events="none" font-family="sans-serif" dy="1.5625" font-size="25" fill="#FFFFFF"/><text text-anchor="middle" pointer-events="none" x="0" y="5" font-size="10px" fill="#FFFFFF" font-family="sans-serif"> 11/1/20…</text></g><g class="node" transform="translate(191.69179135169432,-66.1680788081473)"><circle class="outline" cx="0" cy="0" r="25" fill="#4C8EDA" stroke="#2870c2" stroke-width="2px"/><text text-anchor="middle" pointer-events="none" font-family="sans-serif" dy="1.5625" font-size="25" fill="#FFFFFF"/><text text-anchor="middle" pointer-events="none" x="0" y="5" font-size="10px" fill="#FFFFFF" font-family="sans-serif"> 11/4/20…</text></g><g class="node" transform="translate(135.57333423119195,-87.33380250143787)"><circle class="outline" cx="0" cy="0" r="25" fill="#4C8EDA" stroke="#2870c2" stroke-width="2px"/><text text-anchor="middle" pointer-events="none" font-family="sans-serif" dy="1.5625" font-size="25" fill="#FFFFFF"/><text text-anchor="middle" pointer-events="none" x="0" y="5" font-size="10px" fill="#FFFFFF" font-family="sans-serif"> 11/2/20…</text></g><g class="node" transform="translate(79.70289592128694,209.7360464513753)"><circle class="outline" cx="0" cy="0" r="25" fill="#4C8EDA" stroke="#2870c2" stroke-width="2px"/><text text-anchor="middle" pointer-events="none" font-family="sans-serif" dy="1.5625" font-size="25" fill="#FFFFFF"/><text text-anchor="middle" pointer-events="none" x="0" y="5" font-size="10px" fill="#FFFFFF" font-family="sans-serif"> 11/3/20…</text></g><g class="node" transform="translate(-117.53703946264119,46.70197928807185)"><circle class="outline" cx="0" cy="0" r="25" fill="#4C8EDA" stroke="#2870c2" stroke-width="2px"/><text text-anchor="middle" pointer-events="none" font-family="sans-serif" dy="1.5625" font-size="25" fill="#FFFFFF"/><text text-anchor="middle" pointer-events="none" x="0" y="5" font-size="10px" fill="#FFFFFF" font-family="sans-serif"> 11/3/20…</text></g><g class="node" transform="translate(-60.23447811039044,29.499477152238786)"><circle class="outline" cx="0" cy="0" r="25" fill="#4C8EDA" stroke="#2870c2" stroke-width="2px"/><text text-anchor="middle" pointer-events="none" font-family="sans-serif" dy="1.5625" font-size="25" fill="#FFFFFF"/><text text-anchor="middle" pointer-events="none" x="0" y="5" font-size="10px" fill="#FFFFFF" font-family="sans-serif"> 11/2/20…</text></g><g class="node" transform="translate(-116.55278155774182,-13.243476368772027)"><circle class="outline" cx="0" cy="0" r="25" fill="#4C8EDA" stroke="#2870c2" stroke-width="2px"/><text text-anchor="middle" pointer-events="none" font-family="sans-serif" dy="1.5625" font-size="25" fill="#FFFFFF"/><text text-anchor="middle" pointer-events="none" x="0" y="5" font-size="10px" fill="#FFFFFF" font-family="sans-serif"> 11/1/20…</text></g><g class="node" transform="translate(172.46212112331023,191.4340988053157)"><circle class="outline" cx="0" cy="0" r="25" fill="#4C8EDA" stroke="#2870c2" stroke-width="2px"/><text text-anchor="middle" pointer-events="none" font-family="sans-serif" dy="1.5625" font-size="25" fill="#FFFFFF"/><text text-anchor="middle" pointer-events="none" x="0" y="5" font-size="10px" fill="#FFFFFF" font-family="sans-serif"> 11/30/2…</text></g><g class="node" transform="translate(145.42489978940264,-28.222258433665985)"><circle class="outline" cx="0" cy="0" r="25" fill="#4C8EDA" stroke="#2870c2" stroke-width="2px"/><text text-anchor="middle" pointer-events="none" font-family="sans-serif" dy="1.5625" font-size="25" fill="#FFFFFF"/><text text-anchor="middle" pointer-events="none" x="0" y="5" font-size="10px" fill="#FFFFFF" font-family="sans-serif"> 11/1/20…</text></g><g class="node" transform="translate(-37.52461376092067,212.30092901935672)"><circle class="outline" cx="0" cy="0" r="25" fill="#4C8EDA" stroke="#2870c2" stroke-width="2px"/><text text-anchor="middle" pointer-events="none" font-family="sans-serif" dy="1.5625" font-size="25" fill="#FFFFFF"/><text text-anchor="middle" pointer-events="none" x="0" y="5" font-size="10px" fill="#FFFFFF" font-family="sans-serif"> 11/29/2…</text></g><g class="node" transform="translate(236.97900305286547,48.18424923166929)"><circle class="outline" cx="0" cy="0" r="25" fill="#4C8EDA" stroke="#2870c2" stroke-width="2px"/><text text-anchor="middle" pointer-events="none" font-family="sans-serif" dy="1.5625" font-size="25" fill="#FFFFFF"/><text text-anchor="middle" pointer-events="none" x="0" y="5" font-size="10px" fill="#FFFFFF" font-family="sans-serif"> 11/29/2…</text></g><g class="node" transform="translate(-131.50169069279053,105.04634205875992)"><circle class="outline" cx="0" cy="0" r="25" fill="#4C8EDA" stroke="#2870c2" stroke-width="2px"/><text text-anchor="middle" pointer-events="none" font-family="sans-serif" dy="1.5625" font-size="25" fill="#FFFFFF"/><text text-anchor="middle" pointer-events="none" x="0" y="5" font-size="10px" fill="#FFFFFF" font-family="sans-serif"> 11/4/20…</text></g><g class="node" transform="translate(2.303868043433209,-84.26545155826616)"><circle class="outline" cx="0" cy="0" r="25" fill="#4C8EDA" stroke="#2870c2" stroke-width="2px"/><text text-anchor="middle" pointer-events="none" font-family="sans-serif" dy="1.5625" font-size="25" fill="#FFFFFF"/><text text-anchor="middle" pointer-events="none" x="0" y="5" font-size="10px" fill="#FFFFFF" font-family="sans-serif"> 11/1/20…</text></g><g class="node" transform="translate(25.152729165437542,245.28583139644888)"><circle class="outline" cx="0" cy="0" r="25" fill="#4C8EDA" stroke="#2870c2" stroke-width="2px"/><text text-anchor="middle" pointer-events="none" font-family="sans-serif" dy="1.5625" font-size="25" fill="#FFFFFF"/><text text-anchor="middle" pointer-events="none" x="0" y="5" font-size="10px" fill="#FFFFFF" font-family="sans-serif"> 11/4/20…</text></g><g class="node" transform="translate(206.16819112572426,-8.060297909194366)"><circle class="outline" cx="0" cy="0" r="25" fill="#4C8EDA" stroke="#2870c2" stroke-width="2px"/><text text-anchor="middle" pointer-events="none" font-family="sans-serif" dy="1.5625" font-size="25" fill="#FFFFFF"/><text text-anchor="middle" pointer-events="none" x="0" y="5" font-size="10px" fill="#FFFFFF" font-family="sans-serif"> 11/3/20…</text></g><g class="node" transform="translate(61.697082869606845,-92.18557764332182)"><circle class="outline" cx="0" cy="0" r="25" fill="#4C8EDA" stroke="#2870c2" stroke-width="2px"/><text text-anchor="middle" pointer-events="none" font-family="sans-serif" dy="1.5625" font-size="25" fill="#FFFFFF"/><text text-anchor="middle" pointer-events="none" x="0" y="5" font-size="10px" fill="#FFFFFF" font-family="sans-serif"> 11/2/20…</text></g><g class="node" transform="translate(79.88783292216056,269.5743267100006)"><circle class="outline" cx="0" cy="0" r="25" fill="#4C8EDA" stroke="#2870c2" stroke-width="2px"/><text text-anchor="middle" pointer-events="none" font-family="sans-serif" dy="1.5625" font-size="25" fill="#FFFFFF"/><text text-anchor="middle" pointer-events="none" x="0" y="5" font-size="10px" fill="#FFFFFF" font-family="sans-serif"> 11/2/20…</text></g><g class="node" transform="translate(-74.05110466955647,87.83996591020367)"><circle class="outline" cx="0" cy="0" r="25" fill="#4C8EDA" stroke="#2870c2" stroke-width="2px"/><text text-anchor="middle" pointer-events="none" font-family="sans-serif" dy="1.5625" font-size="25" fill="#FFFFFF"/><text text-anchor="middle" pointer-events="none" x="0" y="5" font-size="10px" fill="#FFFFFF" font-family="sans-serif"> 11/3/20…</text></g><g class="node" transform="translate(-88.02146836732373,146.10829723780807)"><circle class="outline" cx="0" cy="0" r="25" fill="#4C8EDA" stroke="#2870c2" stroke-width="2px"/><text text-anchor="middle" pointer-events="none" font-family="sans-serif" dy="1.5625" font-size="25" fill="#FFFFFF"/><text text-anchor="middle" pointer-events="none" x="0" y="5" font-size="10px" fill="#FFFFFF" font-family="sans-serif"> 11/2/20…</text></g></g></svg>