<svg xmlns="http://www.w3.org/2000/svg" width="443.74798583984375" height="399.66912841796875" viewBox="-92.84677124023438 -110.75348663330078 443.74798583984375 399.66912841796875"><title>Neo4j Graph Visualization</title><desc>Created using Neo4j (http://www.neo4j.com/)</desc><g class="layer relationships"><g class="relationship" transform="translate(230.60909952972236 35.95077892611257) rotate(321.9671513201042)"><path class="outline" fill="#A5ABB6" stroke="none" d="M 25 0.5 L 31.768318350983982 0.5 L 31.768318350983982 -0.5 L 25 -0.5 Z M 77.13498323745858 0.5 L 83.90330158844257 0.5 L 83.90330158844257 3.5 L 90.90330158844257 0 L 83.90330158844257 -3.5 L 83.90330158844257 -0.5 L 77.13498323745858 -0.5 Z"/><text text-anchor="middle" pointer-events="none" font-size="8px" fill="#000000" x="54.45165079422129" y="3" font-family="sans-serif">ACTED_IN</text></g><g class="relationship" transform="translate(230.60909952972236 35.95077892611257) rotate(255.10147753171185)"><path class="outline" fill="#A5ABB6" stroke="none" d="M 25 0.5 L 34.716074363214496 0.5 L 34.716074363214496 -0.5 L 25 -0.5 Z M 80.0827392496891 0.5 L 89.7988136129036 0.5 L 89.7988136129036 3.5 L 96.7988136129036 0 L 89.7988136129036 -3.5 L 89.7988136129036 -0.5 L 80.0827392496891 -0.5 Z"/><text text-anchor="middle" pointer-events="none" font-size="8px" fill="#000000" x="57.3994068064518" y="3" transform="rotate(180 57.3994068064518 0)" font-family="sans-serif">ACTED_IN</text></g><g class="relationship" transform="translate(230.60909952972236 35.95077892611257) rotate(463.4976030711884)"><path class="outline" fill="#A5ABB6" stroke="none" d="M 25 0.5 L 43.15170700013341 0.5 L 43.15170700013341 -0.5 L 25 -0.5 Z M 88.51837188660802 0.5 L 106.67007888674144 0.5 L 106.67007888674144 3.5 L 113.67007888674144 0 L 106.67007888674144 -3.5 L 106.67007888674144 -0.5 L 88.51837188660802 -0.5 Z"/><text text-anchor="middle" pointer-events="none" font-size="8px" fill="#000000" x="65.83503944337072" y="3" transform="rotate(180 65.83503944337072 0)" font-family="sans-serif">ACTED_IN</text></g><g class="relationship" transform="translate(230.60909952972236 35.95077892611257) rotate(520.6989811953295)"><path class="outline" fill="#A5ABB6" stroke="none" d="M 25 0.5 L 25.10868075828826 0.5 L 25.10868075828826 -0.5 L 25 -0.5 Z M 70.47534564476287 0.5 L 70.58402640305113 0.5 L 70.58402640305113 3.5 L 77.58402640305113 0 L 70.58402640305113 -3.5 L 70.58402640305113 -0.5 L 70.47534564476287 -0.5 Z"/><text text-anchor="middle" pointer-events="none" font-size="8px" fill="#000000" x="47.79201320152556" y="3" transform="rotate(180 47.79201320152556 0)" font-family="sans-serif">ACTED_IN</text></g><g class="relationship" transform="translate(230.60909952972236 35.95077892611257) rotate(487.82915109362693)"><path class="outline" fill="#A5ABB6" stroke="none" d="M 25 0.5 L 27.90757742882159 0.5 L 27.90757742882159 -0.5 L 25 -0.5 Z M 73.27424231529619 0.5 L 76.18181974411779 0.5 L 76.18181974411779 3.5 L 83.18181974411779 0 L 76.18181974411779 -3.5 L 76.18181974411779 -0.5 L 73.27424231529619 -0.5 Z"/><text text-anchor="middle" pointer-events="none" font-size="8px" fill="#000000" x="50.590909872058894" y="3" transform="rotate(180 50.590909872058894 0)" font-family="sans-serif">ACTED_IN</text></g><g class="relationship" transform="translate(268.2907512858376 110.21831002914463) rotate(499.14908307958274)"><path class="outline" fill="#A5ABB6" stroke="none" d="M 25 0.5 L 25.37761332101968 0.5 L 25.37761332101968 -0.5 L 25 -0.5 Z M 60.22761370248941 0.5 L 60.60522702350909 0.5 L 60.60522702350909 3.5 L 67.60522702350909 0 L 60.60522702350909 -3.5 L 60.60522702350909 -0.5 L 60.22761370248941 -0.5 Z"/><text text-anchor="middle" pointer-events="none" font-size="8px" fill="#000000" x="42.802613511754544" y="3" transform="rotate(180 42.802613511754544 0)" font-family="sans-serif">ACTE…</text></g><g class="relationship" transform="translate(268.2907512858376 110.21831002914463) rotate(196.70328018313666)"><path class="outline" fill="#A5ABB6" stroke="none" d="M 25 0.5 L 44.0291869525426 0.5 L 44.0291869525426 -0.5 L 25 -0.5 Z M 89.39585183901721 0.5 L 108.42503879155981 0.5 L 108.42503879155981 3.5 L 115.42503879155981 0 L 108.42503879155981 -3.5 L 108.42503879155981 -0.5 L 89.39585183901721 -0.5 Z"/><text text-anchor="middle" pointer-events="none" font-size="8px" fill="#000000" x="66.7125193957799" y="3" transform="rotate(180 66.7125193957799 0)" font-family="sans-serif">ACTED_IN</text></g><g class="relationship" transform="translate(268.2907512858376 110.21831002914463) rotate(533.8665275904505)"><path class="outline" fill="#A5ABB6" stroke="none" d="M 25 0.5 L 26.13140032036185 0.5 L 26.13140032036185 -0.5 L 25 -0.5 Z M 71.49806520683646 0.5 L 72.6294655271983 0.5 L 72.6294655271983 3.5 L 79.6294655271983 0 L 72.6294655271983 -3.5 L 72.6294655271983 -0.5 L 71.49806520683646 -0.5 Z"/><text text-anchor="middle" pointer-events="none" font-size="8px" fill="#000000" x="48.81473276359915" y="3" transform="rotate(180 48.81473276359915 0)" font-family="sans-serif">ACTED_IN</text></g><g class="relationship" transform="translate(123.86577600729379 215.31129479920426) rotate(329.0961514565497)"><path class="outline" fill="#A5ABB6" stroke="none" d="M 25 0.5 L 27.383416063470506 0.5 L 27.383416063470506 -0.5 L 25 -0.5 Z M 52.300082094354295 0.5 L 54.6834981578248 0.5 L 54.6834981578248 3.5 L 61.6834981578248 0 L 54.6834981578248 -3.5 L 54.6834981578248 -0.5 L 52.300082094354295 -0.5 Z"/><text text-anchor="middle" pointer-events="none" font-size="8px" fill="#000000" x="39.8417490789124" y="3" font-family="sans-serif">AC…</text></g><g class="relationship" transform="translate(123.86577600729379 215.31129479920426) rotate(273.903534160947)"><path class="outline" fill="#A5ABB6" stroke="none" d="M 25 0.5 L 46.7124283282358 0.5 L 46.7124283282358 -0.5 L 25 -0.5 Z M 92.07909321471041 0.5 L 113.79152154294621 0.5 L 113.79152154294621 3.5 L 120.79152154294621 0 L 113.79152154294621 -3.5 L 113.79152154294621 -0.5 L 92.07909321471041 -0.5 Z"/><text text-anchor="middle" pointer-events="none" font-size="8px" fill="#000000" x="69.3957607714731" y="3" font-family="sans-serif">ACTED_IN</text></g><g class="relationship" transform="translate(123.86577600729379 215.31129479920426) rotate(293.2736170800943)"><path class="outline" fill="#A5ABB6" stroke="none" d="M 25 0.5 L 25.10801197166564 0.5 L 25.10801197166564 -0.5 L 25 -0.5 Z M 70.12467838401915 0.5 L 70.2326903556848 0.5 L 70.2326903556848 3.5 L 77.2326903556848 0 L 70.2326903556848 -3.5 L 70.2326903556848 -0.5 L 70.12467838401915 -0.5 Z"/><text text-anchor="middle" pointer-events="none" font-size="8px" fill="#000000" x="47.6163451778424" y="3" font-family="sans-serif">ACTED_…</text></g><g class="relationship" transform="translate(56.409096658128334 142.64397391661947) rotate(196.93486369284847)"><path class="outline" fill="#A5ABB6" stroke="none" d="M 25 0.5 L 36.670147934413876 0.5 L 36.670147934413876 -0.5 L 25 -0.5 Z M 82.03681282088849 0.5 L 93.70696075530236 0.5 L 93.70696075530236 3.5 L 100.70696075530236 0 L 93.70696075530236 -3.5 L 93.70696075530236 -0.5 L 82.03681282088849 -0.5 Z"/><text text-anchor="middle" pointer-events="none" font-size="8px" fill="#000000" x="59.35348037765118" y="3" transform="rotate(180 59.35348037765118 0)" font-family="sans-serif">ACTED_IN</text></g><g class="relationship" transform="translate(56.409096658128334 142.64397391661947) rotate(516.1098823707666)"><path class="outline" fill="#A5ABB6" stroke="none" d="M 25 0.5 L 36.2272272141345 0.5 L 36.2272272141345 -0.5 L 25 -0.5 Z M 81.59389210060911 0.5 L 92.82111931474361 0.5 L 92.82111931474361 3.5 L 99.82111931474361 0 L 92.82111931474361 -3.5 L 92.82111931474361 -0.5 L 81.59389210060911 -0.5 Z"/><text text-anchor="middle" pointer-events="none" font-size="8px" fill="#000000" x="58.910559657371806" y="3" transform="rotate(180 58.910559657371806 0)" font-family="sans-serif">ACTED_IN</text></g><g class="relationship" transform="translate(56.409096658128334 142.64397391661947) rotate(237.41974215562016)"><path class="outline" fill="#A5ABB6" stroke="none" d="M 25 0.5 L 37.15482346073275 0.5 L 37.15482346073275 -0.5 L 25 -0.5 Z M 82.52148834720737 0.5 L 94.67631180794011 0.5 L 94.67631180794011 3.5 L 101.67631180794011 0 L 94.67631180794011 -3.5 L 94.67631180794011 -0.5 L 82.52148834720737 -0.5 Z"/><text text-anchor="middle" pointer-events="none" font-size="8px" fill="#000000" x="59.838155903970055" y="3" transform="rotate(180 59.838155903970055 0)" font-family="sans-serif">ACTED_IN</text></g><g class="relationship" transform="translate(56.409096658128334 142.64397391661947) rotate(469.51830597192)"><path class="outline" fill="#A5ABB6" stroke="none" d="M 25 0.5 L 36.02746813820589 0.5 L 36.02746813820589 -0.5 L 25 -0.5 Z M 81.3941330246805 0.5 L 92.42160116288639 0.5 L 92.42160116288639 3.5 L 99.42160116288639 0 L 92.42160116288639 -3.5 L 92.42160116288639 -0.5 L 81.3941330246805 -0.5 Z"/><text text-anchor="middle" pointer-events="none" font-size="8px" fill="#000000" x="58.710800581443195" y="3" transform="rotate(180 58.710800581443195 0)" font-family="sans-serif">ACTED_IN</text></g><g class="relationship" transform="translate(56.409096658128334 142.64397391661947) rotate(371.22446134859564)"><path class="outline" fill="#A5ABB6" stroke="none" d="M 25 0.5 L 46.116486661247066 0.5 L 46.116486661247066 -0.5 L 25 -0.5 Z M 91.48315154772168 0.5 L 112.59963820896874 0.5 L 112.59963820896874 3.5 L 119.59963820896874 0 L 112.59963820896874 -3.5 L 112.59963820896874 -0.5 L 91.48315154772168 -0.5 Z"/><text text-anchor="middle" pointer-events="none" font-size="8px" fill="#000000" x="68.79981910448437" y="3" font-family="sans-serif">ACTED_IN</text></g><g class="relationship" transform="translate(56.409096658128334 142.64397391661947) rotate(316.7529314298848)"><path class="outline" fill="#A5ABB6" stroke="none" d="M 25 0.5 L 26.93381745890538 0.5 L 26.93381745890538 -0.5 L 25 -0.5 Z M 72.30048234537999 0.5 L 74.23429980428537 0.5 L 74.23429980428537 3.5 L 81.23429980428537 0 L 74.23429980428537 -3.5 L 74.23429980428537 -0.5 L 72.30048234537999 -0.5 Z"/><text text-anchor="middle" pointer-events="none" font-size="8px" fill="#000000" x="49.617149902142685" y="3" font-family="sans-serif">ACTED_IN</text></g><g class="relationship" transform="translate(56.409096658128334 142.64397391661947) rotate(348.85550866781705)"><path class="outline" fill="#A5ABB6" stroke="none" d="M 25 0.5 L 28.778652864625883 0.5 L 28.778652864625883 -0.5 L 25 -0.5 Z M 74.14531775110049 0.5 L 77.92397061572638 0.5 L 77.92397061572638 3.5 L 84.92397061572638 0 L 77.92397061572638 -3.5 L 77.92397061572638 -0.5 L 74.14531775110049 -0.5 Z"/><text text-anchor="middle" pointer-events="none" font-size="8px" fill="#000000" x="51.46198530786319" y="3" font-family="sans-serif">ACTED_IN</text></g></g><g class="layer nodes"><g class="node" transform="translate(230.60909952972236,35.95077892611257)"><circle class="outline" cx="0" cy="0" r="25" fill="#F79767" stroke="#f36924" stroke-width="2px"/><text text-anchor="middle" pointer-events="none" font-family="sans-serif" dy="1.5625" font-size="25" fill="#FFFFFF"/><text text-anchor="middle" pointer-events="none" font-family="sans-serif" dy="1.5625" font-size="25" fill="#FFFFFF"/><text text-anchor="middle" pointer-events="none" x="0" y="0" font-size="10px" fill="#FFFFFF" font-family="sans-serif"> Hugo</text><text text-anchor="middle" pointer-events="none" x="0" y="10" font-size="10px" fill="#FFFFFF" font-family="sans-serif"> Weavi…</text></g><g class="node" transform="translate(321.90122221324475,-35.45876984040864)"><circle class="outline" cx="0" cy="0" r="25" fill="#57C7E3" stroke="#23b3d7" stroke-width="2px"/><text text-anchor="middle" pointer-events="none" font-family="sans-serif" dy="1.5625" font-size="25" fill="#2A2C34"/><text text-anchor="middle" pointer-events="none" font-family="sans-serif" dy="1.5625" font-size="25" fill="#2A2C34"/><text text-anchor="middle" pointer-events="none" x="0" y="0" font-size="10px" fill="#2A2C34" font-family="sans-serif"> Cloud</text><text text-anchor="middle" pointer-events="none" x="0" y="10" font-size="10px" fill="#2A2C34" font-family="sans-serif"> Atlas</text></g><g class="node" transform="translate(164.26021677457655,121.39743995094553)"><circle class="outline" cx="0" cy="0" r="25" fill="#57C7E3" stroke="#23b3d7" stroke-width="2px"/><text text-anchor="middle" pointer-events="none" font-family="sans-serif" dy="1.5625" font-size="25" fill="#2A2C34"/><text text-anchor="middle" pointer-events="none" font-family="sans-serif" dy="1.5625" font-size="25" fill="#2A2C34"/><text text-anchor="middle" pointer-events="none" x="0" y="0" font-size="10px" fill="#2A2C34" font-family="sans-serif"> The</text><text text-anchor="middle" pointer-events="none" x="0" y="10" font-size="10px" fill="#2A2C34" font-family="sans-serif"> Matrix</text></g><g class="node" transform="translate(199.293665705403,-81.7534886341824)"><circle class="outline" cx="0" cy="0" r="25" fill="#57C7E3" stroke="#23b3d7" stroke-width="2px"/><text text-anchor="middle" pointer-events="none" font-family="sans-serif" dy="1.5625" font-size="25" fill="#2A2C34"/><text text-anchor="middle" pointer-events="none" font-family="sans-serif" dy="1.5625" font-size="25" fill="#2A2C34"/><text text-anchor="middle" pointer-events="none" x="0" y="0" font-size="10px" fill="#2A2C34" font-family="sans-serif"> V for</text><text text-anchor="middle" pointer-events="none" x="0" y="10" font-size="10px" fill="#2A2C34" font-family="sans-serif"> Vendet…</text></g><g class="node" transform="translate(198.2428534153764,170.79074663198486)"><circle class="outline" cx="0" cy="0" r="25" fill="#57C7E3" stroke="#23b3d7" stroke-width="2px"/><text text-anchor="middle" pointer-events="none" font-family="sans-serif" dy="1.5625" font-size="25" fill="#2A2C34"/><text text-anchor="middle" pointer-events="none" font-family="sans-serif" dy="1.5625" font-size="25" fill="#2A2C34"/><text text-anchor="middle" pointer-events="none" font-family="sans-serif" dy="1.5625" font-size="25" fill="#2A2C34"/><text text-anchor="middle" pointer-events="none" x="0" y="-5" font-size="10px" fill="#2A2C34" font-family="sans-serif"> The</text><text text-anchor="middle" pointer-events="none" x="0" y="5" font-size="10px" fill="#2A2C34" font-family="sans-serif"> Matrix</text><text text-anchor="middle" pointer-events="none" x="0" y="15" font-size="10px" fill="#2A2C34" font-family="sans-serif"> Revol…</text></g><g class="node" transform="translate(133.7908006990502,69.85799769434186)"><circle class="outline" cx="0" cy="0" r="25" fill="#57C7E3" stroke="#23b3d7" stroke-width="2px"/><text text-anchor="middle" pointer-events="none" font-family="sans-serif" dy="1.5625" font-size="25" fill="#2A2C34"/><text text-anchor="middle" pointer-events="none" font-family="sans-serif" dy="1.5625" font-size="25" fill="#2A2C34"/><text text-anchor="middle" pointer-events="none" font-family="sans-serif" dy="1.5625" font-size="25" fill="#2A2C34"/><text text-anchor="middle" pointer-events="none" x="0" y="-5" font-size="10px" fill="#2A2C34" font-family="sans-serif"> The</text><text text-anchor="middle" pointer-events="none" x="0" y="5" font-size="10px" fill="#2A2C34" font-family="sans-serif"> Matrix</text><text text-anchor="middle" pointer-events="none" x="0" y="15" font-size="10px" fill="#2A2C34" font-family="sans-serif"> Reloa…</text></g><g class="node" transform="translate(268.2907512858376,110.21831002914463)"><circle class="outline" cx="0" cy="0" r="25" fill="#F79767" stroke="#f36924" stroke-width="2px"/><text text-anchor="middle" pointer-events="none" font-family="sans-serif" dy="1.5625" font-size="25" fill="#FFFFFF"/><text text-anchor="middle" pointer-events="none" x="0" y="5" font-size="10px" fill="#FFFFFF" font-family="sans-serif"> Lauren…</text></g><g class="node" transform="translate(123.86577600729379,215.31129479920426)"><circle class="outline" cx="0" cy="0" r="25" fill="#F79767" stroke="#f36924" stroke-width="2px"/><text text-anchor="middle" pointer-events="none" font-family="sans-serif" dy="1.5625" font-size="25" fill="#FFFFFF"/><text text-anchor="middle" pointer-events="none" x="0" y="5" font-size="10px" fill="#FFFFFF" font-family="sans-serif"> Carrie-…</text></g><g class="node" transform="translate(56.409096658128334,142.64397391661947)"><circle class="outline" cx="0" cy="0" r="25" fill="#F79767" stroke="#f36924" stroke-width="2px"/><text text-anchor="middle" pointer-events="none" font-family="sans-serif" dy="1.5625" font-size="25" fill="#FFFFFF"/><text text-anchor="middle" pointer-events="none" font-family="sans-serif" dy="1.5625" font-size="25" fill="#FFFFFF"/><text text-anchor="middle" pointer-events="none" x="0" y="0" font-size="10px" fill="#FFFFFF" font-family="sans-serif"> Keanu</text><text text-anchor="middle" pointer-events="none" x="0" y="10" font-size="10px" fill="#FFFFFF" font-family="sans-serif"> Reeves</text></g><g class="node" transform="translate(-63.84677264940724,106.02750385977141)"><circle class="outline" cx="0" cy="0" r="25" fill="#57C7E3" stroke="#23b3d7" stroke-width="2px"/><text text-anchor="middle" pointer-events="none" font-family="sans-serif" dy="1.5625" font-size="25" fill="#2A2C34"/><text text-anchor="middle" pointer-events="none" x="0" y="5" font-size="10px" fill="#2A2C34" font-family="sans-serif"> Someth…</text></g><g class="node" transform="translate(-57.71782602260747,193.19451641035354)"><circle class="outline" cx="0" cy="0" r="25" fill="#57C7E3" stroke="#23b3d7" stroke-width="2px"/><text text-anchor="middle" pointer-events="none" font-family="sans-serif" dy="1.5625" font-size="25" fill="#2A2C34"/><text text-anchor="middle" pointer-events="none" font-family="sans-serif" dy="1.5625" font-size="25" fill="#2A2C34"/><text text-anchor="middle" pointer-events="none" x="0" y="0" font-size="10px" fill="#2A2C34" font-family="sans-serif"> The</text><text text-anchor="middle" pointer-events="none" x="0" y="10" font-size="10px" fill="#2A2C34" font-family="sans-serif"> Replac…</text></g><g class="node" transform="translate(-11.803623629403951,35.90170129589368)"><circle class="outline" cx="0" cy="0" r="25" fill="#57C7E3" stroke="#23b3d7" stroke-width="2px"/><text text-anchor="middle" pointer-events="none" font-family="sans-serif" dy="1.5625" font-size="25" fill="#2A2C34"/><text text-anchor="middle" pointer-events="none" font-family="sans-serif" dy="1.5625" font-size="25" fill="#2A2C34"/><text text-anchor="middle" pointer-events="none" x="0" y="0" font-size="10px" fill="#2A2C34" font-family="sans-serif"> Johnny</text><text text-anchor="middle" pointer-events="none" x="0" y="10" font-size="10px" fill="#2A2C34" font-family="sans-serif"> Mnem…</text></g><g class="node" transform="translate(14.838842388355184,259.9156618719089)"><circle class="outline" cx="0" cy="0" r="25" fill="#57C7E3" stroke="#23b3d7" stroke-width="2px"/><text text-anchor="middle" pointer-events="none" font-family="sans-serif" dy="1.5625" font-size="25" fill="#2A2C34"/><text text-anchor="middle" pointer-events="none" font-family="sans-serif" dy="1.5625" font-size="25" fill="#2A2C34"/><text text-anchor="middle" pointer-events="none" font-family="sans-serif" dy="1.5625" font-size="25" fill="#2A2C34"/><text text-anchor="middle" pointer-events="none" x="0" y="-5" font-size="10px" fill="#2A2C34" font-family="sans-serif"> The</text><text text-anchor="middle" pointer-events="none" x="0" y="5" font-size="10px" fill="#2A2C34" font-family="sans-serif"> Devil's</text><text text-anchor="middle" pointer-events="none" x="0" y="15" font-size="10px" fill="#2A2C34" font-family="sans-serif"> Advo…</text></g></g></svg>