<svg xmlns="http://www.w3.org/2000/svg" width="189.27947998046875" height="212.6038818359375" viewBox="-4.937526702880859 6.476737976074219 189.27947998046875 212.6038818359375"><title>Neo4j Graph Visualization</title><desc>Created using Neo4j (http://www.neo4j.com/)</desc><g class="layer relationships"><g class="relationship" transform="translate(24.062473081515904 82.75956363269576) rotate(352.64706750536413)"><path class="outline" fill="#A5ABB6" stroke="none" d="M 25 0.5 L 40.00065998875607 0.5 L 40.00065998875607 -0.5 L 25 -0.5 Z M 85.36732487523068 0.5 L 100.36798486398675 0.5 L 100.36798486398675 3.5 L 107.36798486398675 0 L 100.36798486398675 -3.5 L 100.36798486398675 -0.5 L 85.36732487523068 -0.5 Z"/><text text-anchor="middle" pointer-events="none" font-size="8px" fill="#000000" x="62.683992431993374" y="3" font-family="sans-serif">ACTED_IN</text></g><g class="relationship" transform="translate(24.062473081515904 82.75956363269576) rotate(329.2801043915514)"><path class="outline" fill="#A5ABB6" stroke="none" d="M 25 0.5 L 25.354354827193518 0.5 L 25.354354827193518 -0.5 L 25 -0.5 Z M 60.204355208663245 0.5 L 60.55871003585676 0.5 L 60.55871003585676 3.5 L 67.55871003585676 0 L 60.55871003585676 -3.5 L 60.55871003585676 -0.5 L 60.204355208663245 -0.5 Z"/><text text-anchor="middle" pointer-events="none" font-size="8px" fill="#000000" x="42.77935501792838" y="3" font-family="sans-serif">ACTE…</text></g><g class="relationship" transform="translate(24.062473081515904 82.75956363269576) rotate(437.39825774036444)"><path class="outline" fill="#A5ABB6" stroke="none" d="M 25 0.5 L 28.80178030840628 0.5 L 28.80178030840628 -0.5 L 25 -0.5 Z M 74.16844519488089 0.5 L 77.97022550328717 0.5 L 77.97022550328717 3.5 L 84.97022550328717 0 L 77.97022550328717 -3.5 L 77.97022550328717 -0.5 L 74.16844519488089 -0.5 Z"/><text text-anchor="middle" pointer-events="none" font-size="8px" fill="#000000" x="51.485112751643584" y="3" font-family="sans-serif">ACTED_IN</text></g><g class="relationship" transform="translate(153.31393637524442 158.23481375448915) rotate(271.2571203356787)"><path class="outline" fill="#A5ABB6" stroke="none" d="M 25 0.5 L 25.294037135543768 0.5 L 25.294037135543768 -0.5 L 25 -0.5 Z M 60.144037517013494 0.5 L 60.43807465255726 0.5 L 60.43807465255726 3.5 L 67.43807465255726 0 L 60.43807465255726 -3.5 L 60.43807465255726 -0.5 L 60.144037517013494 -0.5 Z"/><text text-anchor="middle" pointer-events="none" font-size="8px" fill="#000000" x="42.71903732627863" y="3" font-family="sans-serif">ACTE…</text></g><g class="relationship" transform="translate(153.31393637524442 158.23481375448915) rotate(247.96647330644936)"><path class="outline" fill="#A5ABB6" stroke="none" d="M 25 0.5 L 40.031758833144636 0.5 L 40.031758833144636 -0.5 L 25 -0.5 Z M 85.39842371961925 0.5 L 100.43018255276388 0.5 L 100.43018255276388 3.5 L 107.43018255276388 0 L 100.43018255276388 -3.5 L 100.43018255276388 -0.5 L 85.39842371961925 -0.5 Z"/><text text-anchor="middle" pointer-events="none" font-size="8px" fill="#000000" x="62.71509127638194" y="3" transform="rotate(180 62.71509127638194 0)" font-family="sans-serif">ACTED_IN</text></g><g class="relationship" transform="translate(153.31393637524442 158.23481375448915) rotate(523.1669515933612)"><path class="outline" fill="#A5ABB6" stroke="none" d="M 25 0.5 L 28.80211908632424 0.5 L 28.80211908632424 -0.5 L 25 -0.5 Z M 74.16878397279885 0.5 L 77.97090305912309 0.5 L 77.97090305912309 3.5 L 84.97090305912309 0 L 77.97090305912309 -3.5 L 77.97090305912309 -0.5 L 74.16878397279885 -0.5 Z"/><text text-anchor="middle" pointer-events="none" font-size="8px" fill="#000000" x="51.485451529561544" y="3" transform="rotate(180 51.485451529561544 0)" font-family="sans-serif">ACTED_IN</text></g></g><g class="layer nodes"><g class="node" transform="translate(24.062473081515904,82.75956363269576)"><circle class="outline" cx="0" cy="0" r="25" fill="#F79767" stroke="#f36924" stroke-width="2px"/><text text-anchor="middle" pointer-events="none" font-family="sans-serif" dy="1.5625" font-size="25" fill="#FFFFFF"/><text text-anchor="middle" pointer-events="none" font-family="sans-serif" dy="1.5625" font-size="25" fill="#FFFFFF"/><text text-anchor="middle" pointer-events="none" x="0" y="0" font-size="10px" fill="#FFFFFF" font-family="sans-serif"> Hugo</text><text text-anchor="middle" pointer-events="none" x="0" y="10" font-size="10px" fill="#FFFFFF" font-family="sans-serif"> Weavi…</text></g><g class="node" transform="translate(153.31393637524442,158.23481375448915)"><circle class="outline" cx="0" cy="0" r="25" fill="#F79767" stroke="#f36924" stroke-width="2px"/><text text-anchor="middle" pointer-events="none" font-family="sans-serif" dy="1.5625" font-size="25" fill="#FFFFFF"/><text text-anchor="middle" pointer-events="none" font-family="sans-serif" dy="1.5625" font-size="25" fill="#FFFFFF"/><text text-anchor="middle" pointer-events="none" x="0" y="0" font-size="10px" fill="#FFFFFF" font-family="sans-serif"> Keanu</text><text text-anchor="middle" pointer-events="none" x="0" y="10" font-size="10px" fill="#FFFFFF" font-family="sans-serif"> Reeves</text></g><g class="node" transform="translate(155.3419471819869,65.81898817445398)"><circle class="outline" cx="0" cy="0" r="25" fill="#57C7E3" stroke="#23b3d7" stroke-width="2px"/><text text-anchor="middle" pointer-events="none" font-family="sans-serif" dy="1.5625" font-size="25" fill="#2A2C34"/><text text-anchor="middle" pointer-events="none" font-family="sans-serif" dy="1.5625" font-size="25" fill="#2A2C34"/><text text-anchor="middle" pointer-events="none" font-family="sans-serif" dy="1.5625" font-size="25" fill="#2A2C34"/><text text-anchor="middle" pointer-events="none" x="0" y="-5" font-size="10px" fill="#2A2C34" font-family="sans-serif"> The</text><text text-anchor="middle" pointer-events="none" x="0" y="5" font-size="10px" fill="#2A2C34" font-family="sans-serif"> Matrix</text><text text-anchor="middle" pointer-events="none" x="0" y="15" font-size="10px" fill="#2A2C34" font-family="sans-serif"> Revol…</text></g><g class="node" transform="translate(103.63287628742972,35.47673654769469)"><circle class="outline" cx="0" cy="0" r="25" fill="#57C7E3" stroke="#23b3d7" stroke-width="2px"/><text text-anchor="middle" pointer-events="none" font-family="sans-serif" dy="1.5625" font-size="25" fill="#2A2C34"/><text text-anchor="middle" pointer-events="none" font-family="sans-serif" dy="1.5625" font-size="25" fill="#2A2C34"/><text text-anchor="middle" pointer-events="none" font-family="sans-serif" dy="1.5625" font-size="25" fill="#2A2C34"/><text text-anchor="middle" pointer-events="none" x="0" y="-5" font-size="10px" fill="#2A2C34" font-family="sans-serif"> The</text><text text-anchor="middle" pointer-events="none" x="0" y="5" font-size="10px" fill="#2A2C34" font-family="sans-serif"> Matrix</text><text text-anchor="middle" pointer-events="none" x="0" y="15" font-size="10px" fill="#2A2C34" font-family="sans-serif"> Reloa…</text></g><g class="node" transform="translate(48.05499797763027,190.08062049644997)"><circle class="outline" cx="0" cy="0" r="25" fill="#57C7E3" stroke="#23b3d7" stroke-width="2px"/><text text-anchor="middle" pointer-events="none" font-family="sans-serif" dy="1.5625" font-size="25" fill="#2A2C34"/><text text-anchor="middle" pointer-events="none" font-family="sans-serif" dy="1.5625" font-size="25" fill="#2A2C34"/><text text-anchor="middle" pointer-events="none" x="0" y="0" font-size="10px" fill="#2A2C34" font-family="sans-serif"> The</text><text text-anchor="middle" pointer-events="none" x="0" y="10" font-size="10px" fill="#2A2C34" font-family="sans-serif"> Matrix</text></g></g></svg>