<svg xmlns="http://www.w3.org/2000/svg" width="363.1920166015625" height="364.601806640625" viewBox="-89.83879089355469 -76.42678833007812 363.1920166015625 364.601806640625"><title>Neo4j Graph Visualization</title><desc>Created using Neo4j (http://www.neo4j.com/)</desc><g class="layer relationships"><g class="relationship" transform="translate(135.12839438273897 259.1750186236764) rotate(330.2239365477693)"><path class="outline" fill="#A5ABB6" stroke="none" d="M 21.40063509461097,12.933012701892217 L 21.90063509461097,12.06698729810778 A 57.57274218984343 57.57274218984343 0 0 0 24.363673326469048,13.410096242781691 L 23.906454652113332,14.29945055002959 A 58.57274218984343 58.57274218984343 0 0 1 21.40063509461097,12.933012701892217 Z M 74.13954091282454,15.880099737992367 L 73.73914076342948,14.963759342525485 A 57.57274218984343 57.57274218984343 0 0 0 76.28174809502511,13.778159525481872 L 74.94805748387991,11.09091756508025 L 82.77426110448641,11.114088426210007 L 78.0600022432187,17.361148806017365 L 76.7263116320735,14.673906845615743 A 58.57274218984343 58.57274218984343 0 0 1 74.13954091282454,15.880099737992367"/><text text-anchor="middle" pointer-events="none" font-size="8px" fill="#000000" x="48.86057603934187" y="23.251543799099224" font-family="sans-serif">PRODUCED</text></g><g class="relationship" transform="translate(135.12839438273897 259.1750186236764) rotate(330.2239365477693)"><path class="outline" fill="#A5ABB6" stroke="none" d="M 25 0.5 L 25.667306023032843 0.5 L 25.667306023032843 -0.5 L 25 -0.5 Z M 72.50063808480041 0.5 L 73.16794410783326 0.5 L 73.16794410783326 3.5 L 80.16794410783326 0 L 73.16794410783326 -3.5 L 73.16794410783326 -0.5 L 72.50063808480041 -0.5 Z"/><text text-anchor="middle" pointer-events="none" font-size="8px" fill="#000000" x="49.08397205391663" y="3" font-family="sans-serif">DIRECTED</text></g><g class="relationship" transform="translate(135.12839438273897 259.1750186236764) rotate(330.2239365477693)"><path class="outline" fill="#A5ABB6" stroke="none" d="M 21.40063509461097,-12.933012701892217 L 21.90063509461097,-12.06698729810778 A 57.57274218984343 57.57274218984343 0 0 1 31.54301730587903,-16.50419962590749 L 31.210499031510107,-17.44729643812282 A 58.57274218984343 58.57274218984343 0 0 0 21.40063509461097,-12.933012701892217 Z M 66.6520399496345,-18.562510474179334 L 66.37947231555727,-17.600373849341914 A 57.57274218984343 57.57274218984343 0 0 1 76.28174809502511,-13.778159525481872 L 74.94805748387991,-11.09091756508025 L 82.77426110448641,-11.114088426210007 L 78.0600022432187,-17.361148806017365 L 76.7263116320735,-14.673906845615743 A 58.57274218984343 58.57274218984343 0 0 0 66.6520399496345,-18.562510474179334"/><text text-anchor="middle" pointer-events="none" font-size="8px" fill="#000000" x="48.86057603934188" y="-17.251543799099224" font-family="sans-serif">WROTE</text></g><g class="relationship" transform="translate(244.35320905497912 17.140423331669766) rotate(203.5803409076915)"><path class="outline" fill="#A5ABB6" stroke="none" d="M 24.018736134675446,6.953439040707552 L 24.277555179777966,5.987513214418485 A 99.64388934424213 99.64388934424213 0 0 0 25.396662338980914,6.280425293713847 L 25.1490743604954,7.249290708985484 A 100.64388934424213 100.64388934424213 0 0 1 24.018736134675446,6.953439040707552 Z M 71.78225472401506,8.012264762825936 L 71.56649434953682,7.035818419801899 A 99.64388934424213 99.64388934424213 0 0 0 72.69458473710823,6.779673153507018 L 72.01333995383463,3.8580459450386777 L 79.62525568741329,5.677039860613339 L 73.60291111480636,10.675176098131471 L 72.92166633153276,7.753548889663131 A 100.64388934424213 100.64388934424213 0 0 1 71.78225472401506,8.012264762825936"/><text text-anchor="middle" pointer-events="none" font-size="8px" fill="#000000" x="48.429038105912895" y="12.869395423398231" transform="rotate(180 48.429038105912895 9.869395423398231)" font-family="sans-serif">DIRECTED</text></g><g class="relationship" transform="translate(244.35320905497912 17.140423331669766) rotate(203.5803409076915)"><path class="outline" fill="#A5ABB6" stroke="none" d="M 24.018736134675446,-6.953439040707552 L 24.277555179777966,-5.987513214418485 A 99.64388934424213 99.64388934424213 0 0 1 30.79029077303982,-7.500361267340253 L 30.596831838187132,-8.48146964082693 A 100.64388934424213 100.64388934424213 0 0 0 24.018736134675446,-6.953439040707552 Z M 66.297104045505,-9.065568370463112 L 66.1358442543632,-8.078656378560638 A 99.64388934424213 99.64388934424213 0 0 1 72.69458473710823,-6.779673153507018 L 72.01333995383463,-3.8580459450386777 L 79.62525568741329,-5.677039860613339 L 73.60291111480636,-10.675176098131471 L 72.92166633153276,-7.753548889663131 A 100.64388934424213 100.64388934424213 0 0 0 66.297104045505,-9.065568370463112"/><text text-anchor="middle" pointer-events="none" font-size="8px" fill="#000000" x="48.42903810591286" y="-6.869395423398217" transform="rotate(180 48.42903810591286 -9.869395423398217)" font-family="sans-serif">WROTE</text></g><g class="relationship" transform="translate(47.769286232150705 -47.42678580776703) rotate(372.77926163262504)"><path class="outline" fill="#A5ABB6" stroke="none" d="M 24.018736134675446,6.953439040707552 L 24.277555179777966,5.987513214418485 A 99.43177972680338 99.43177972680338 0 0 0 25.344962169039473,6.267185409791509 L 25.09687819266643,7.235923940390421 A 100.43177972680338 100.43177972680338 0 0 1 24.018736134675446,6.953439040707552 Z M 71.72872583507421,7.999606425342108 L 71.51249614729377,7.023263902391079 A 99.43177972680338 99.43177972680338 0 0 0 72.58848857037958,6.7786938243954085 L 71.90733526594626,3.857045287035112 L 79.51919404162582,5.67627753694437 L 73.49669297629067,10.674225207542472 L 72.81553967185735,7.752576670182175 A 100.43177972680338 100.43177972680338 0 0 1 71.72872583507421,7.999606425342108"/><text text-anchor="middle" pointer-events="none" font-size="8px" fill="#000000" x="48.3760457346051" y="12.8621707419465" font-family="sans-serif">DIRECTED</text></g><g class="relationship" transform="translate(47.769286232150705 -47.42678580776703) rotate(372.77926163262504)"><path class="outline" fill="#A5ABB6" stroke="none" d="M 24.018736134675446,-6.953439040707552 L 24.277555179777966,-5.987513214418485 A 99.43177972680338 99.43177972680338 0 0 1 30.737976956284093,-7.489551242208364 L 30.5441313210336,-8.470583285362068 A 100.43177972680338 100.43177972680338 0 0 0 24.018736134675446,-6.953439040707552 Z M 66.24396503743648,-9.055233885826624 L 66.0823471549288,-8.068380472165941 A 99.43177972680338 99.43177972680338 0 0 1 72.58848857037958,-6.7786938243954085 L 71.90733526594626,-3.857045287035112 L 79.51919404162582,-5.67627753694437 L 73.49669297629067,-10.674225207542472 L 72.81553967185735,-7.752576670182175 A 100.43177972680338 100.43177972680338 0 0 0 66.24396503743648,-9.055233885826624"/><text text-anchor="middle" pointer-events="none" font-size="8px" fill="#000000" x="48.37604573460505" y="-6.8621707419465" font-family="sans-serif">WROTE</text></g><g class="relationship" transform="translate(-60.8387924494855 94.68896756184505) rotate(432.3280576543872)"><path class="outline" fill="#A5ABB6" stroke="none" d="M 21.40063509461097,12.933012701892217 L 21.90063509461097,12.06698729810778 A 57.173834351184325 57.173834351184325 0 0 0 31.355680934154492,16.4308082456374 L 31.02105458709977,17.373159139867788 A 58.173834351184325 58.173834351184325 0 0 1 21.40063509461097,12.933012701892217 Z M 66.45676293287424,18.492062186125402 L 66.18225445598293,17.530477506487244 A 57.173834351184325 57.173834351184325 0 0 0 75.8937712573108,13.771851892317336 L 74.5606674375957,11.08431878445411 L 82.38686581227752,11.109198497625945 L 77.67124301693096,17.355229369468308 L 76.33813919721585,14.66769626160508 A 58.173834351184325 58.173834351184325 0 0 1 66.45676293287424,18.492062186125402"/><text text-anchor="middle" pointer-events="none" font-size="8px" fill="#000000" x="48.667374643822285" y="23.19809924635878" font-family="sans-serif">WROTE</text></g><g class="relationship" transform="translate(-60.8387924494855 94.68896756184505) rotate(432.3280576543872)"><path class="outline" fill="#A5ABB6" stroke="none" d="M 25 0.5 L 25.474821491351754 0.5 L 25.474821491351754 -0.5 L 25 -0.5 Z M 72.30815355311933 0.5 L 72.78297504447109 0.5 L 72.78297504447109 3.5 L 79.78297504447109 0 L 72.78297504447109 -3.5 L 72.78297504447109 -0.5 L 72.30815355311933 -0.5 Z"/><text text-anchor="middle" pointer-events="none" font-size="8px" fill="#000000" x="48.89148752223554" y="3" font-family="sans-serif">DIRECTED</text></g><g class="relationship" transform="translate(-60.8387924494855 94.68896756184505) rotate(432.3280576543872)"><path class="outline" fill="#A5ABB6" stroke="none" d="M 21.40063509461097,-12.933012701892217 L 21.90063509461097,-12.06698729810778 A 57.173834351184325 57.173834351184325 0 0 1 24.185243571125312,-13.317508415322862 L 23.725202557651933,-14.20540608167996 A 58.173834351184325 58.173834351184325 0 0 0 21.40063509461097,-12.933012701892217 Z M 73.93792930064562,-15.79090205555503 L 73.53482063002102,-14.875749937234119 A 57.173834351184325 57.173834351184325 0 0 1 75.8937712573108,-13.771851892317336 L 74.5606674375957,-11.08431878445411 L 82.38686581227752,-11.109198497625945 L 77.67124301693096,-17.355229369468308 L 76.33813919721585,-14.66769626160508 A 58.173834351184325 58.173834351184325 0 0 0 73.93792930064562,-15.79090205555503"/><text text-anchor="middle" pointer-events="none" font-size="8px" fill="#000000" x="48.66737464382229" y="-17.19809924635878" font-family="sans-serif">PRODUCED</text></g></g><g class="layer nodes"><g class="node" transform="translate(135.12839438273897,259.1750186236764)"><circle class="outline" cx="0" cy="0" r="25" fill="#F79767" stroke="#f36924" stroke-width="2px"/><text text-anchor="middle" pointer-events="none" font-family="sans-serif" dy="1.5625" font-size="25" fill="#FFFFFF"/><text text-anchor="middle" pointer-events="none" x="0" y="5" font-size="10px" fill="#FFFFFF" font-family="sans-serif"> Cameron</text></g><g class="node" transform="translate(226.4113302526592,206.94741972389573)"><circle class="outline" cx="0" cy="0" r="25" fill="#57C7E3" stroke="#23b3d7" stroke-width="2px"/><text text-anchor="middle" pointer-events="none" font-family="sans-serif" dy="1.5625" font-size="25" fill="#2A2C34"/><text text-anchor="middle" pointer-events="none" font-family="sans-serif" dy="1.5625" font-size="25" fill="#2A2C34"/><text text-anchor="middle" pointer-events="none" x="0" y="0" font-size="10px" fill="#2A2C34" font-family="sans-serif"> Jerry</text><text text-anchor="middle" pointer-events="none" x="0" y="10" font-size="10px" fill="#2A2C34" font-family="sans-serif"> Maguire</text></g><g class="node" transform="translate(244.35320905497912,17.140423331669766)"><circle class="outline" cx="0" cy="0" r="25" fill="#F79767" stroke="#f36924" stroke-width="2px"/><text text-anchor="middle" pointer-events="none" font-family="sans-serif" dy="1.5625" font-size="25" fill="#FFFFFF"/><text text-anchor="middle" pointer-events="none" font-family="sans-serif" dy="1.5625" font-size="25" fill="#FFFFFF"/><text text-anchor="middle" pointer-events="none" x="0" y="0" font-size="10px" fill="#FFFFFF" font-family="sans-serif"> Lana</text><text text-anchor="middle" pointer-events="none" x="0" y="10" font-size="10px" fill="#FFFFFF" font-family="sans-serif"> Wacho…</text></g><g class="node" transform="translate(149.06273007375515,-24.45203274146664)"><circle class="outline" cx="0" cy="0" r="25" fill="#57C7E3" stroke="#23b3d7" stroke-width="2px"/><text text-anchor="middle" pointer-events="none" font-family="sans-serif" dy="1.5625" font-size="25" fill="#2A2C34"/><text text-anchor="middle" pointer-events="none" font-family="sans-serif" dy="1.5625" font-size="25" fill="#2A2C34"/><text text-anchor="middle" pointer-events="none" x="0" y="0" font-size="10px" fill="#2A2C34" font-family="sans-serif"> Speed</text><text text-anchor="middle" pointer-events="none" x="0" y="10" font-size="10px" fill="#2A2C34" font-family="sans-serif"> Racer</text></g><g class="node" transform="translate(47.769286232150705,-47.42678580776703)"><circle class="outline" cx="0" cy="0" r="25" fill="#F79767" stroke="#f36924" stroke-width="2px"/><text text-anchor="middle" pointer-events="none" font-family="sans-serif" dy="1.5625" font-size="25" fill="#FFFFFF"/><text text-anchor="middle" pointer-events="none" font-family="sans-serif" dy="1.5625" font-size="25" fill="#FFFFFF"/><text text-anchor="middle" pointer-events="none" x="0" y="0" font-size="10px" fill="#FFFFFF" font-family="sans-serif"> Lilly</text><text text-anchor="middle" pointer-events="none" x="0" y="10" font-size="10px" fill="#FFFFFF" font-family="sans-serif"> Wacho…</text></g><g class="node" transform="translate(-60.8387924494855,94.68896756184505)"><circle class="outline" cx="0" cy="0" r="25" fill="#F79767" stroke="#f36924" stroke-width="2px"/><text text-anchor="middle" pointer-events="none" font-family="sans-serif" dy="1.5625" font-size="25" fill="#FFFFFF"/><text text-anchor="middle" pointer-events="none" font-family="sans-serif" dy="1.5625" font-size="25" fill="#FFFFFF"/><text text-anchor="middle" pointer-events="none" x="0" y="0" font-size="10px" fill="#FFFFFF" font-family="sans-serif"> Nancy</text><text text-anchor="middle" pointer-events="none" x="0" y="10" font-size="10px" fill="#FFFFFF" font-family="sans-serif"> Meyers</text></g><g class="node" transform="translate(-29.030190655141357,194.52726037106277)"><circle class="outline" cx="0" cy="0" r="25" fill="#57C7E3" stroke="#23b3d7" stroke-width="2px"/><text text-anchor="middle" pointer-events="none" font-family="sans-serif" dy="1.5625" font-size="25" fill="#2A2C34"/><text text-anchor="middle" pointer-events="none" x="0" y="5" font-size="10px" fill="#2A2C34" font-family="sans-serif"> Someth…</text></g></g></svg>