<svg xmlns="http://www.w3.org/2000/svg" width="285.669189453125" height="265.8145446777344" viewBox="-31.822036743164062 -40.51546859741211 285.669189453125 265.8145446777344"><title>Neo4j Graph Visualization</title><desc>Created using Neo4j (http://www.neo4j.com/)</desc><g class="layer relationships"><g class="relationship" transform="translate(162.11864964729332 196.29908699763644) rotate(243.86381836363955)"><path class="outline" fill="#A5ABB6" stroke="none" d="M 25 0.5 L 36.354525247215335 0.5 L 36.354525247215335 -0.5 L 25 -0.5 Z M 72.0711924225083 0.5 L 83.42571766972364 0.5 L 83.42571766972364 3.5 L 90.42571766972364 0 L 83.42571766972364 -3.5 L 83.42571766972364 -0.5 L 72.0711924225083 -0.5 Z"/><text text-anchor="middle" pointer-events="none" font-size="8px" fill="#000000" x="54.21285883486182" y="3" transform="rotate(180 54.21285883486182 0)" font-family="sans-serif">WROTE</text></g><g class="relationship" transform="translate(224.8471550902625 91.74497961783172) rotate(539.5304832738188)"><path class="outline" fill="#A5ABB6" stroke="none" d="M 25 0.5 L 30.605697778527087 0.5 L 30.605697778527087 -0.5 L 25 -0.5 Z M 75.9723626650017 0.5 L 81.57806044352878 0.5 L 81.57806044352878 3.5 L 88.57806044352878 0 L 81.57806044352878 -3.5 L 81.57806044352878 -0.5 L 75.9723626650017 -0.5 Z"/><text text-anchor="middle" pointer-events="none" font-size="8px" fill="#000000" x="53.28903022176439" y="3" transform="rotate(180 53.28903022176439 0)" font-family="sans-serif">ACTED_IN</text></g><g class="relationship" transform="translate(156.42228214677016 -11.515469937818931) rotate(473.4286317819941)"><path class="outline" fill="#A5ABB6" stroke="none" d="M 25 0.5 L 29.859793291848682 0.5 L 29.859793291848682 -0.5 L 25 -0.5 Z M 76.69312535361627 0.5 L 81.55291864546494 0.5 L 81.55291864546494 3.5 L 88.55291864546494 0 L 81.55291864546494 -3.5 L 81.55291864546494 -0.5 L 76.69312535361627 -0.5 Z"/><text text-anchor="middle" pointer-events="none" font-size="8px" fill="#000000" x="53.27645932273247" y="3" transform="rotate(180 53.27645932273247 0)" font-family="sans-serif">DIRECTED</text></g><g class="relationship" transform="translate(35.67918432203837 5.501911539353249) rotate(409.0694401452057)"><path class="outline" fill="#A5ABB6" stroke="none" d="M 25 0.5 L 31.509128114660896 0.5 L 31.509128114660896 -0.5 L 25 -0.5 Z M 76.8757930011355 0.5 L 83.3849211157964 0.5 L 83.3849211157964 3.5 L 90.3849211157964 0 L 83.3849211157964 -3.5 L 83.3849211157964 -0.5 L 76.8757930011355 -0.5 Z"/><text text-anchor="middle" pointer-events="none" font-size="8px" fill="#000000" x="54.1924605578982" y="3" font-family="sans-serif">ACTED_IN</text></g><g class="relationship" transform="translate(-2.822036653353072 106.23275284097947) rotate(353.2237395085931)"><path class="outline" fill="#A5ABB6" stroke="none" d="M 25 0.5 L 31.265449464543494 0.5 L 31.265449464543494 -0.5 L 25 -0.5 Z M 76.6321143510181 0.5 L 82.8975638155616 0.5 L 82.8975638155616 3.5 L 89.8975638155616 0 L 82.8975638155616 -3.5 L 82.8975638155616 -0.5 L 76.6321143510181 -0.5 Z"/><text text-anchor="middle" pointer-events="none" font-size="8px" fill="#000000" x="53.9487819077808" y="3" font-family="sans-serif">ACTED_IN</text></g><g class="relationship" transform="translate(54.33827282404224 192.50059712385257) rotate(299.69805885359887)"><path class="outline" fill="#A5ABB6" stroke="none" d="M 25 0.5 L 36.101572639061764 0.5 L 36.101572639061764 -0.5 L 25 -0.5 Z M 71.81823981435474 0.5 L 82.9198124534165 0.5 L 82.9198124534165 3.5 L 89.9198124534165 0 L 82.9198124534165 -3.5 L 82.9198124534165 -0.5 L 71.81823981435474 -0.5 Z"/><text text-anchor="middle" pointer-events="none" font-size="8px" fill="#000000" x="53.95990622670825" y="3" font-family="sans-serif">WROTE</text></g></g><g class="layer nodes"><g class="node" transform="translate(111.27290810408599,92.67569742514604)"><circle class="outline" cx="0" cy="0" r="25" fill="#57C7E3" stroke="#23b3d7" stroke-width="2px"/><text text-anchor="middle" pointer-events="none" font-family="sans-serif" dy="1.5625" font-size="25" fill="#2A2C34"/><text text-anchor="middle" pointer-events="none" font-family="sans-serif" dy="1.5625" font-size="25" fill="#2A2C34"/><text text-anchor="middle" pointer-events="none" x="0" y="0" font-size="10px" fill="#2A2C34" font-family="sans-serif"> Captain</text><text text-anchor="middle" pointer-events="none" x="0" y="10" font-size="10px" fill="#2A2C34" font-family="sans-serif"> Americ…</text></g><g class="node" transform="translate(162.11864964729332,196.29908699763644)"><circle class="outline" cx="0" cy="0" r="25" fill="#F79767" stroke="#f36924" stroke-width="2px"/><text text-anchor="middle" pointer-events="none" font-family="sans-serif" dy="1.5625" font-size="25" fill="#FFFFFF"/><text text-anchor="middle" pointer-events="none" font-family="sans-serif" dy="1.5625" font-size="25" fill="#FFFFFF"/><text text-anchor="middle" pointer-events="none" x="0" y="0" font-size="10px" fill="#FFFFFF" font-family="sans-serif"> Stephen</text><text text-anchor="middle" pointer-events="none" x="0" y="10" font-size="10px" fill="#FFFFFF" font-family="sans-serif"> McFeely</text></g><g class="node" transform="translate(224.8471550902625,91.74497961783172)"><circle class="outline" cx="0" cy="0" r="25" fill="#F79767" stroke="#f36924" stroke-width="2px"/><text text-anchor="middle" pointer-events="none" font-family="sans-serif" dy="1.5625" font-size="25" fill="#FFFFFF"/><text text-anchor="middle" pointer-events="none" font-family="sans-serif" dy="1.5625" font-size="25" fill="#FFFFFF"/><text text-anchor="middle" pointer-events="none" x="0" y="0" font-size="10px" fill="#FFFFFF" font-family="sans-serif"> Hugo</text><text text-anchor="middle" pointer-events="none" x="0" y="10" font-size="10px" fill="#FFFFFF" font-family="sans-serif"> Weavi…</text></g><g class="node" transform="translate(156.42228214677016,-11.515469937818931)"><circle class="outline" cx="0" cy="0" r="25" fill="#F79767" stroke="#f36924" stroke-width="2px"/><text text-anchor="middle" pointer-events="none" font-family="sans-serif" dy="1.5625" font-size="25" fill="#FFFFFF"/><text text-anchor="middle" pointer-events="none" font-family="sans-serif" dy="1.5625" font-size="25" fill="#FFFFFF"/><text text-anchor="middle" pointer-events="none" x="0" y="0" font-size="10px" fill="#FFFFFF" font-family="sans-serif"> Joe</text><text text-anchor="middle" pointer-events="none" x="0" y="10" font-size="10px" fill="#FFFFFF" font-family="sans-serif"> Johnst…</text></g><g class="node" transform="translate(35.67918432203837,5.501911539353249)"><circle class="outline" cx="0" cy="0" r="25" fill="#F79767" stroke="#f36924" stroke-width="2px"/><text text-anchor="middle" pointer-events="none" font-family="sans-serif" dy="1.5625" font-size="25" fill="#FFFFFF"/><text text-anchor="middle" pointer-events="none" font-family="sans-serif" dy="1.5625" font-size="25" fill="#FFFFFF"/><text text-anchor="middle" pointer-events="none" x="0" y="0" font-size="10px" fill="#FFFFFF" font-family="sans-serif"> Samuel</text><text text-anchor="middle" pointer-events="none" x="0" y="10" font-size="10px" fill="#FFFFFF" font-family="sans-serif"> L. Jack…</text></g><g class="node" transform="translate(-2.822036653353072,106.23275284097947)"><circle class="outline" cx="0" cy="0" r="25" fill="#F79767" stroke="#f36924" stroke-width="2px"/><text text-anchor="middle" pointer-events="none" font-family="sans-serif" dy="1.5625" font-size="25" fill="#FFFFFF"/><text text-anchor="middle" pointer-events="none" font-family="sans-serif" dy="1.5625" font-size="25" fill="#FFFFFF"/><text text-anchor="middle" pointer-events="none" x="0" y="0" font-size="10px" fill="#FFFFFF" font-family="sans-serif"> Chris</text><text text-anchor="middle" pointer-events="none" x="0" y="10" font-size="10px" fill="#FFFFFF" font-family="sans-serif"> Evans</text></g><g class="node" transform="translate(54.33827282404224,192.50059712385257)"><circle class="outline" cx="0" cy="0" r="25" fill="#F79767" stroke="#f36924" stroke-width="2px"/><text text-anchor="middle" pointer-events="none" font-family="sans-serif" dy="1.5625" font-size="25" fill="#FFFFFF"/><text text-anchor="middle" pointer-events="none" x="0" y="5" font-size="10px" fill="#FFFFFF" font-family="sans-serif"> Christo…</text></g></g></svg>